%TF.GenerationSoftware,KiCad,Pcbnew,(6.0.10)*%
%TF.CreationDate,2023-01-17T15:40:54+01:00*%
%TF.ProjectId,kvm,6b766d2e-6b69-4636-9164-5f7063625858,v01*%
%TF.SameCoordinates,Original*%
%TF.FileFunction,Drillmap*%
%TF.FilePolarity,Positive*%
%FSLAX45Y45*%
G04 Gerber Fmt 4.5, Leading zero omitted, Abs format (unit mm)*
G04 Created by KiCad (PCBNEW (6.0.10)) date 2023-01-17 15:40:54*
%MOMM*%
%LPD*%
G01*
G04 APERTURE LIST*
%ADD10C,0.100000*%
%ADD11C,0.200000*%
%ADD12C,0.040000*%
%ADD13C,0.063000*%
%ADD14C,0.080000*%
%ADD15C,0.092000*%
%ADD16C,0.230000*%
G04 APERTURE END LIST*
D10*
X11671300Y-3937000D02*
X5969000Y-3937000D01*
X5969000Y-3937000D02*
X5969000Y-10871200D01*
X5969000Y-10871200D02*
X11671300Y-10871200D01*
X11671300Y-10871200D02*
X11671300Y-3937000D01*
D11*
D12*
X6876100Y-4272600D02*
X6916100Y-4312600D01*
X6916100Y-4272600D02*
X6876100Y-4312600D01*
X6876100Y-6406200D02*
X6916100Y-6446200D01*
X6916100Y-6406200D02*
X6876100Y-6446200D01*
X6888800Y-5733100D02*
X6928800Y-5773100D01*
X6928800Y-5733100D02*
X6888800Y-5773100D01*
X6888800Y-6609400D02*
X6928800Y-6649400D01*
X6928800Y-6609400D02*
X6888800Y-6649400D01*
X6901500Y-4920300D02*
X6941500Y-4960300D01*
X6941500Y-4920300D02*
X6901500Y-4960300D01*
X6901500Y-5148900D02*
X6941500Y-5188900D01*
X6941500Y-5148900D02*
X6901500Y-5188900D01*
X6952300Y-5872800D02*
X6992300Y-5912800D01*
X6992300Y-5872800D02*
X6952300Y-5912800D01*
X7041200Y-4971100D02*
X7081200Y-5011100D01*
X7081200Y-4971100D02*
X7041200Y-5011100D01*
X7053900Y-4374200D02*
X7093900Y-4414200D01*
X7093900Y-4374200D02*
X7053900Y-4414200D01*
X7155500Y-6215700D02*
X7195500Y-6255700D01*
X7195500Y-6215700D02*
X7155500Y-6255700D01*
X7180900Y-5910900D02*
X7220900Y-5950900D01*
X7220900Y-5910900D02*
X7180900Y-5950900D01*
X7269800Y-6723700D02*
X7309800Y-6763700D01*
X7309800Y-6723700D02*
X7269800Y-6763700D01*
X7320600Y-4107500D02*
X7360600Y-4147500D01*
X7360600Y-4107500D02*
X7320600Y-4147500D01*
X7333300Y-6253800D02*
X7373300Y-6293800D01*
X7373300Y-6253800D02*
X7333300Y-6293800D01*
X7346000Y-5326700D02*
X7386000Y-5366700D01*
X7386000Y-5326700D02*
X7346000Y-5366700D01*
X7358700Y-5847400D02*
X7398700Y-5887400D01*
X7398700Y-5847400D02*
X7358700Y-5887400D01*
X7358700Y-6022450D02*
X7398700Y-6062450D01*
X7398700Y-6022450D02*
X7358700Y-6062450D01*
X7422200Y-4793300D02*
X7462200Y-4833300D01*
X7462200Y-4793300D02*
X7422200Y-4833300D01*
X7447600Y-5021900D02*
X7487600Y-5061900D01*
X7487600Y-5021900D02*
X7447600Y-5061900D01*
X7460300Y-5326700D02*
X7500300Y-5366700D01*
X7500300Y-5326700D02*
X7460300Y-5366700D01*
X7777800Y-6634800D02*
X7817800Y-6674800D01*
X7817800Y-6634800D02*
X7777800Y-6674800D01*
X7815900Y-6253800D02*
X7855900Y-6293800D01*
X7855900Y-6253800D02*
X7815900Y-6293800D01*
X7815900Y-6457000D02*
X7855900Y-6497000D01*
X7855900Y-6457000D02*
X7815900Y-6497000D01*
X7845191Y-4577400D02*
X7885191Y-4617400D01*
X7885191Y-4577400D02*
X7845191Y-4617400D01*
X7845191Y-4793300D02*
X7885191Y-4833300D01*
X7885191Y-4793300D02*
X7845191Y-4833300D01*
X7879400Y-9263700D02*
X7919400Y-9303700D01*
X7919400Y-9263700D02*
X7879400Y-9303700D01*
X7968300Y-7142800D02*
X8008300Y-7182800D01*
X8008300Y-7142800D02*
X7968300Y-7182800D01*
X8095300Y-9136700D02*
X8135300Y-9176700D01*
X8135300Y-9136700D02*
X8095300Y-9176700D01*
X8108000Y-5923600D02*
X8148000Y-5963600D01*
X8148000Y-5923600D02*
X8108000Y-5963600D01*
X8222300Y-9886000D02*
X8262300Y-9926000D01*
X8262300Y-9886000D02*
X8222300Y-9926000D01*
X8247700Y-7676200D02*
X8287700Y-7716200D01*
X8287700Y-7676200D02*
X8247700Y-7716200D01*
X8247700Y-8450900D02*
X8287700Y-8490900D01*
X8287700Y-8450900D02*
X8247700Y-8490900D01*
X8301150Y-4282650D02*
X8341150Y-4322650D01*
X8341150Y-4282650D02*
X8301150Y-4322650D01*
X8311200Y-5326700D02*
X8351200Y-5366700D01*
X8351200Y-5326700D02*
X8311200Y-5366700D01*
X8387400Y-6101400D02*
X8427400Y-6141400D01*
X8427400Y-6101400D02*
X8387400Y-6141400D01*
X8440850Y-4384250D02*
X8480850Y-4424250D01*
X8480850Y-4384250D02*
X8440850Y-4424250D01*
X8453550Y-4272941D02*
X8493550Y-4312941D01*
X8493550Y-4272941D02*
X8453550Y-4312941D01*
X8476300Y-7879400D02*
X8516300Y-7919400D01*
X8516300Y-7879400D02*
X8476300Y-7919400D01*
X8514400Y-8323900D02*
X8554400Y-8363900D01*
X8554400Y-8323900D02*
X8514400Y-8363900D01*
X8590600Y-10635300D02*
X8630600Y-10675300D01*
X8630600Y-10635300D02*
X8590600Y-10675300D01*
X8603300Y-9759000D02*
X8643300Y-9799000D01*
X8643300Y-9759000D02*
X8603300Y-9799000D01*
X8616000Y-5161600D02*
X8656000Y-5201600D01*
X8656000Y-5161600D02*
X8616000Y-5201600D01*
X8666800Y-8374700D02*
X8706800Y-8414700D01*
X8706800Y-8374700D02*
X8666800Y-8414700D01*
X8679500Y-7879400D02*
X8719500Y-7919400D01*
X8719500Y-7879400D02*
X8679500Y-7919400D01*
X8692200Y-10432100D02*
X8732200Y-10472100D01*
X8732200Y-10432100D02*
X8692200Y-10472100D01*
X8717600Y-5987100D02*
X8757600Y-6027100D01*
X8757600Y-5987100D02*
X8717600Y-6027100D01*
X8783750Y-4803350D02*
X8823750Y-4843350D01*
X8823750Y-4803350D02*
X8783750Y-4843350D01*
X8806500Y-9911400D02*
X8846500Y-9951400D01*
X8846500Y-9911400D02*
X8806500Y-9951400D01*
X8819200Y-10441250D02*
X8859200Y-10481250D01*
X8859200Y-10441250D02*
X8819200Y-10481250D01*
X8844600Y-5593400D02*
X8884600Y-5633400D01*
X8884600Y-5593400D02*
X8844600Y-5633400D01*
X8857300Y-6101400D02*
X8897300Y-6141400D01*
X8897300Y-6101400D02*
X8857300Y-6141400D01*
X8870000Y-5885500D02*
X8910000Y-5925500D01*
X8910000Y-5885500D02*
X8870000Y-5925500D01*
X8984300Y-6799900D02*
X9024300Y-6839900D01*
X9024300Y-6799900D02*
X8984300Y-6839900D01*
X8997000Y-10165400D02*
X9037000Y-10205400D01*
X9037000Y-10165400D02*
X8997000Y-10205400D01*
X8999650Y-4206450D02*
X9039650Y-4246450D01*
X9039650Y-4206450D02*
X8999650Y-4246450D01*
X9200200Y-6926900D02*
X9240200Y-6966900D01*
X9240200Y-6926900D02*
X9200200Y-6966900D01*
X9365300Y-8946200D02*
X9405300Y-8986200D01*
X9405300Y-8946200D02*
X9365300Y-8986200D01*
X9543100Y-8425500D02*
X9583100Y-8465500D01*
X9583100Y-8425500D02*
X9543100Y-8465500D01*
X9606600Y-9505000D02*
X9646600Y-9545000D01*
X9646600Y-9505000D02*
X9606600Y-9545000D01*
X9962200Y-8806500D02*
X10002200Y-8846500D01*
X10002200Y-8806500D02*
X9962200Y-8846500D01*
X10025700Y-8285800D02*
X10065700Y-8325800D01*
X10065700Y-8285800D02*
X10025700Y-8325800D01*
X10076500Y-5885500D02*
X10116500Y-5925500D01*
X10116500Y-5885500D02*
X10076500Y-5925500D01*
X10114600Y-9314500D02*
X10154600Y-9354500D01*
X10154600Y-9314500D02*
X10114600Y-9354500D01*
X10381300Y-8235000D02*
X10421300Y-8275000D01*
X10421300Y-8235000D02*
X10381300Y-8275000D01*
X10470200Y-7003100D02*
X10510200Y-7043100D01*
X10510200Y-7003100D02*
X10470200Y-7043100D01*
X10470200Y-7447600D02*
X10510200Y-7487600D01*
X10510200Y-7447600D02*
X10470200Y-7487600D01*
X10483877Y-8157823D02*
X10523877Y-8197823D01*
X10523877Y-8157823D02*
X10483877Y-8197823D01*
X10558123Y-8083577D02*
X10598123Y-8123577D01*
X10598123Y-8083577D02*
X10558123Y-8123577D01*
X10584500Y-6050600D02*
X10624500Y-6090600D01*
X10624500Y-6050600D02*
X10584500Y-6090600D01*
X10584500Y-7523800D02*
X10624500Y-7563800D01*
X10624500Y-7523800D02*
X10584500Y-7563800D01*
X10736900Y-8260400D02*
X10776900Y-8300400D01*
X10776900Y-8260400D02*
X10736900Y-8300400D01*
X10736900Y-9124000D02*
X10776900Y-9164000D01*
X10776900Y-9124000D02*
X10736900Y-9164000D01*
X10851200Y-7511100D02*
X10891200Y-7551100D01*
X10891200Y-7511100D02*
X10851200Y-7551100D01*
X10927400Y-5885500D02*
X10967400Y-5925500D01*
X10967400Y-5885500D02*
X10927400Y-5925500D01*
X10927400Y-7015800D02*
X10967400Y-7055800D01*
X10967400Y-7015800D02*
X10927400Y-7055800D01*
X11016300Y-7549200D02*
X11056300Y-7589200D01*
X11056300Y-7549200D02*
X11016300Y-7589200D01*
X11105200Y-9314500D02*
X11145200Y-9354500D01*
X11145200Y-9314500D02*
X11105200Y-9354500D01*
X11244900Y-7015800D02*
X11284900Y-7055800D01*
X11284900Y-7015800D02*
X11244900Y-7055800D01*
X11257600Y-8158800D02*
X11297600Y-8198800D01*
X11297600Y-8158800D02*
X11257600Y-8198800D01*
X11257600Y-8971600D02*
X11297600Y-9011600D01*
X11297600Y-8971600D02*
X11257600Y-9011600D01*
X11448100Y-7041200D02*
X11488100Y-7081200D01*
X11488100Y-7041200D02*
X11448100Y-7081200D01*
X11448100Y-8158800D02*
X11488100Y-8198800D01*
X11488100Y-8158800D02*
X11448100Y-8198800D01*
D13*
X10430100Y-9804400D02*
G75*
G03*
X10430100Y-9804400I-31500J0D01*
G01*
X10918100Y-9804400D02*
G75*
G03*
X10918100Y-9804400I-31500J0D01*
G01*
D14*
X8077200Y-6590234D02*
X8077200Y-6670234D01*
X8037200Y-6630234D02*
X8117200Y-6630234D01*
X8077200Y-6790234D02*
X8077200Y-6870234D01*
X8037200Y-6830234D02*
X8117200Y-6830234D01*
X8117950Y-4808599D02*
X8117950Y-4888599D01*
X8077950Y-4848599D02*
X8157950Y-4848599D01*
X8117950Y-5008599D02*
X8117950Y-5088599D01*
X8077950Y-5048599D02*
X8157950Y-5048599D01*
X8420100Y-8723000D02*
X8420100Y-8803000D01*
X8380100Y-8763000D02*
X8460100Y-8763000D01*
X8420100Y-8923000D02*
X8420100Y-9003000D01*
X8380100Y-8963000D02*
X8460100Y-8963000D01*
X8717280Y-9269652D02*
X8717280Y-9349652D01*
X8677280Y-9309652D02*
X8757280Y-9309652D01*
X8717280Y-9469652D02*
X8717280Y-9549652D01*
X8677280Y-9509652D02*
X8757280Y-9509652D01*
X8750300Y-7160900D02*
X8750300Y-7240900D01*
X8710300Y-7200900D02*
X8790300Y-7200900D01*
X8750300Y-7360900D02*
X8750300Y-7440900D01*
X8710300Y-7400900D02*
X8790300Y-7400900D01*
D15*
X7253027Y-7645427D02*
X7253027Y-7580373D01*
X7187973Y-7580373D01*
X7187973Y-7645427D01*
X7253027Y-7645427D01*
X7253027Y-7895427D02*
X7253027Y-7830373D01*
X7187973Y-7830373D01*
X7187973Y-7895427D01*
X7253027Y-7895427D01*
X7253027Y-8095427D02*
X7253027Y-8030373D01*
X7187973Y-8030373D01*
X7187973Y-8095427D01*
X7253027Y-8095427D01*
X7253027Y-8345427D02*
X7253027Y-8280373D01*
X7187973Y-8280373D01*
X7187973Y-8345427D01*
X7253027Y-8345427D01*
X7253027Y-9595528D02*
X7253027Y-9530474D01*
X7187973Y-9530474D01*
X7187973Y-9595528D01*
X7253027Y-9595528D01*
X7253027Y-9845528D02*
X7253027Y-9780474D01*
X7187973Y-9780474D01*
X7187973Y-9845528D01*
X7253027Y-9845528D01*
X7253027Y-10045528D02*
X7253027Y-9980474D01*
X7187973Y-9980474D01*
X7187973Y-10045528D01*
X7253027Y-10045528D01*
X7253027Y-10295528D02*
X7253027Y-10230474D01*
X7187973Y-10230474D01*
X7187973Y-10295528D01*
X7253027Y-10295528D01*
X7515027Y-7645427D02*
X7515027Y-7580373D01*
X7449973Y-7580373D01*
X7449973Y-7645427D01*
X7515027Y-7645427D01*
X7515027Y-7895427D02*
X7515027Y-7830373D01*
X7449973Y-7830373D01*
X7449973Y-7895427D01*
X7515027Y-7895427D01*
X7515027Y-8095427D02*
X7515027Y-8030373D01*
X7449973Y-8030373D01*
X7449973Y-8095427D01*
X7515027Y-8095427D01*
X7515027Y-8345427D02*
X7515027Y-8280373D01*
X7449973Y-8280373D01*
X7449973Y-8345427D01*
X7515027Y-8345427D01*
X7515027Y-9595528D02*
X7515027Y-9530474D01*
X7449973Y-9530474D01*
X7449973Y-9595528D01*
X7515027Y-9595528D01*
X7515027Y-9845528D02*
X7515027Y-9780474D01*
X7449973Y-9780474D01*
X7449973Y-9845528D01*
X7515027Y-9845528D01*
X7515027Y-10045528D02*
X7515027Y-9980474D01*
X7449973Y-9980474D01*
X7449973Y-10045528D01*
X7515027Y-10045528D01*
X7515027Y-10295528D02*
X7515027Y-10230474D01*
X7449973Y-10230474D01*
X7449973Y-10295528D01*
X7515027Y-10295528D01*
D10*
X9501100Y-5511000D02*
X9551100Y-5461000D01*
X9501100Y-5411000D01*
X9451100Y-5461000D01*
X9501100Y-5511000D01*
X9755100Y-5511000D02*
X9805100Y-5461000D01*
X9755100Y-5411000D01*
X9705100Y-5461000D01*
X9755100Y-5511000D01*
X10009100Y-5511000D02*
X10059100Y-5461000D01*
X10009100Y-5411000D01*
X9959100Y-5461000D01*
X10009100Y-5511000D01*
D16*
X6834500Y-7190900D02*
X7064500Y-7420900D01*
X7064500Y-7190900D02*
X6834500Y-7420900D01*
X7064500Y-7305900D02*
G75*
G03*
X7064500Y-7305900I-115000J0D01*
G01*
X6834500Y-8504900D02*
X7064500Y-8734900D01*
X7064500Y-8504900D02*
X6834500Y-8734900D01*
X7064500Y-8619900D02*
G75*
G03*
X7064500Y-8619900I-115000J0D01*
G01*
X6834500Y-9141001D02*
X7064500Y-9371001D01*
X7064500Y-9141001D02*
X6834500Y-9371001D01*
X7064500Y-9256001D02*
G75*
G03*
X7064500Y-9256001I-115000J0D01*
G01*
X6834500Y-10455001D02*
X7064500Y-10685001D01*
X7064500Y-10455001D02*
X6834500Y-10685001D01*
X7064500Y-10570001D02*
G75*
G03*
X7064500Y-10570001I-115000J0D01*
G01*
X7402500Y-7190900D02*
X7632500Y-7420900D01*
X7632500Y-7190900D02*
X7402500Y-7420900D01*
X7632500Y-7305900D02*
G75*
G03*
X7632500Y-7305900I-115000J0D01*
G01*
X7402500Y-8504900D02*
X7632500Y-8734900D01*
X7632500Y-8504900D02*
X7402500Y-8734900D01*
X7632500Y-8619900D02*
G75*
G03*
X7632500Y-8619900I-115000J0D01*
G01*
X7402500Y-9141001D02*
X7632500Y-9371001D01*
X7632500Y-9141001D02*
X7402500Y-9371001D01*
X7632500Y-9256001D02*
G75*
G03*
X7632500Y-9256001I-115000J0D01*
G01*
X7402500Y-10455001D02*
X7632500Y-10685001D01*
X7632500Y-10455001D02*
X7402500Y-10685001D01*
X7632500Y-10570001D02*
G75*
G03*
X7632500Y-10570001I-115000J0D01*
G01*
D11*
X6221619Y-11186676D02*
X6221619Y-10986676D01*
X6269238Y-10986676D01*
X6297809Y-10996200D01*
X6316857Y-11015248D01*
X6326381Y-11034295D01*
X6335905Y-11072390D01*
X6335905Y-11100962D01*
X6326381Y-11139057D01*
X6316857Y-11158105D01*
X6297809Y-11177152D01*
X6269238Y-11186676D01*
X6221619Y-11186676D01*
X6421619Y-11186676D02*
X6421619Y-11053343D01*
X6421619Y-11091438D02*
X6431143Y-11072390D01*
X6440667Y-11062867D01*
X6459714Y-11053343D01*
X6478762Y-11053343D01*
X6545428Y-11186676D02*
X6545428Y-11053343D01*
X6545428Y-10986676D02*
X6535905Y-10996200D01*
X6545428Y-11005724D01*
X6554952Y-10996200D01*
X6545428Y-10986676D01*
X6545428Y-11005724D01*
X6669238Y-11186676D02*
X6650190Y-11177152D01*
X6640667Y-11158105D01*
X6640667Y-10986676D01*
X6774000Y-11186676D02*
X6754952Y-11177152D01*
X6745428Y-11158105D01*
X6745428Y-10986676D01*
X7002571Y-11186676D02*
X7002571Y-10986676D01*
X7069238Y-11129533D01*
X7135905Y-10986676D01*
X7135905Y-11186676D01*
X7316857Y-11186676D02*
X7316857Y-11081914D01*
X7307333Y-11062867D01*
X7288286Y-11053343D01*
X7250190Y-11053343D01*
X7231143Y-11062867D01*
X7316857Y-11177152D02*
X7297809Y-11186676D01*
X7250190Y-11186676D01*
X7231143Y-11177152D01*
X7221619Y-11158105D01*
X7221619Y-11139057D01*
X7231143Y-11120010D01*
X7250190Y-11110486D01*
X7297809Y-11110486D01*
X7316857Y-11100962D01*
X7412095Y-11053343D02*
X7412095Y-11253343D01*
X7412095Y-11062867D02*
X7431143Y-11053343D01*
X7469238Y-11053343D01*
X7488286Y-11062867D01*
X7497809Y-11072390D01*
X7507333Y-11091438D01*
X7507333Y-11148581D01*
X7497809Y-11167629D01*
X7488286Y-11177152D01*
X7469238Y-11186676D01*
X7431143Y-11186676D01*
X7412095Y-11177152D01*
X7593048Y-11167629D02*
X7602571Y-11177152D01*
X7593048Y-11186676D01*
X7583524Y-11177152D01*
X7593048Y-11167629D01*
X7593048Y-11186676D01*
X7593048Y-11062867D02*
X7602571Y-11072390D01*
X7593048Y-11081914D01*
X7583524Y-11072390D01*
X7593048Y-11062867D01*
X7593048Y-11081914D01*
D12*
X5924000Y-11496200D02*
X5964000Y-11536200D01*
X5964000Y-11496200D02*
X5924000Y-11536200D01*
D11*
X6259714Y-11406676D02*
X6278762Y-11406676D01*
X6297809Y-11416200D01*
X6307333Y-11425724D01*
X6316857Y-11444771D01*
X6326381Y-11482867D01*
X6326381Y-11530486D01*
X6316857Y-11568581D01*
X6307333Y-11587628D01*
X6297809Y-11597152D01*
X6278762Y-11606676D01*
X6259714Y-11606676D01*
X6240667Y-11597152D01*
X6231143Y-11587628D01*
X6221619Y-11568581D01*
X6212095Y-11530486D01*
X6212095Y-11482867D01*
X6221619Y-11444771D01*
X6231143Y-11425724D01*
X6240667Y-11416200D01*
X6259714Y-11406676D01*
X6412095Y-11587628D02*
X6421619Y-11597152D01*
X6412095Y-11606676D01*
X6402571Y-11597152D01*
X6412095Y-11587628D01*
X6412095Y-11606676D01*
X6593048Y-11473343D02*
X6593048Y-11606676D01*
X6545428Y-11397152D02*
X6497809Y-11540009D01*
X6621619Y-11540009D01*
X6735905Y-11406676D02*
X6754952Y-11406676D01*
X6774000Y-11416200D01*
X6783524Y-11425724D01*
X6793048Y-11444771D01*
X6802571Y-11482867D01*
X6802571Y-11530486D01*
X6793048Y-11568581D01*
X6783524Y-11587628D01*
X6774000Y-11597152D01*
X6754952Y-11606676D01*
X6735905Y-11606676D01*
X6716857Y-11597152D01*
X6707333Y-11587628D01*
X6697809Y-11568581D01*
X6688286Y-11530486D01*
X6688286Y-11482867D01*
X6697809Y-11444771D01*
X6707333Y-11425724D01*
X6716857Y-11416200D01*
X6735905Y-11406676D01*
X6926381Y-11406676D02*
X6945428Y-11406676D01*
X6964476Y-11416200D01*
X6974000Y-11425724D01*
X6983524Y-11444771D01*
X6993048Y-11482867D01*
X6993048Y-11530486D01*
X6983524Y-11568581D01*
X6974000Y-11587628D01*
X6964476Y-11597152D01*
X6945428Y-11606676D01*
X6926381Y-11606676D01*
X6907333Y-11597152D01*
X6897809Y-11587628D01*
X6888286Y-11568581D01*
X6878762Y-11530486D01*
X6878762Y-11482867D01*
X6888286Y-11444771D01*
X6897809Y-11425724D01*
X6907333Y-11416200D01*
X6926381Y-11406676D01*
X7078762Y-11606676D02*
X7078762Y-11473343D01*
X7078762Y-11492390D02*
X7088286Y-11482867D01*
X7107333Y-11473343D01*
X7135905Y-11473343D01*
X7154952Y-11482867D01*
X7164476Y-11501914D01*
X7164476Y-11606676D01*
X7164476Y-11501914D02*
X7174000Y-11482867D01*
X7193048Y-11473343D01*
X7221619Y-11473343D01*
X7240667Y-11482867D01*
X7250190Y-11501914D01*
X7250190Y-11606676D01*
X7345428Y-11606676D02*
X7345428Y-11473343D01*
X7345428Y-11492390D02*
X7354952Y-11482867D01*
X7374000Y-11473343D01*
X7402571Y-11473343D01*
X7421619Y-11482867D01*
X7431143Y-11501914D01*
X7431143Y-11606676D01*
X7431143Y-11501914D02*
X7440667Y-11482867D01*
X7459714Y-11473343D01*
X7488286Y-11473343D01*
X7507333Y-11482867D01*
X7516857Y-11501914D01*
X7516857Y-11606676D01*
X7907333Y-11397152D02*
X7735905Y-11654295D01*
X8164476Y-11406676D02*
X8183524Y-11406676D01*
X8202571Y-11416200D01*
X8212095Y-11425724D01*
X8221619Y-11444771D01*
X8231143Y-11482867D01*
X8231143Y-11530486D01*
X8221619Y-11568581D01*
X8212095Y-11587628D01*
X8202571Y-11597152D01*
X8183524Y-11606676D01*
X8164476Y-11606676D01*
X8145428Y-11597152D01*
X8135905Y-11587628D01*
X8126381Y-11568581D01*
X8116857Y-11530486D01*
X8116857Y-11482867D01*
X8126381Y-11444771D01*
X8135905Y-11425724D01*
X8145428Y-11416200D01*
X8164476Y-11406676D01*
X8316857Y-11587628D02*
X8326381Y-11597152D01*
X8316857Y-11606676D01*
X8307333Y-11597152D01*
X8316857Y-11587628D01*
X8316857Y-11606676D01*
X8450190Y-11406676D02*
X8469238Y-11406676D01*
X8488286Y-11416200D01*
X8497810Y-11425724D01*
X8507333Y-11444771D01*
X8516857Y-11482867D01*
X8516857Y-11530486D01*
X8507333Y-11568581D01*
X8497810Y-11587628D01*
X8488286Y-11597152D01*
X8469238Y-11606676D01*
X8450190Y-11606676D01*
X8431143Y-11597152D01*
X8421619Y-11587628D01*
X8412095Y-11568581D01*
X8402571Y-11530486D01*
X8402571Y-11482867D01*
X8412095Y-11444771D01*
X8421619Y-11425724D01*
X8431143Y-11416200D01*
X8450190Y-11406676D01*
X8707333Y-11606676D02*
X8593048Y-11606676D01*
X8650190Y-11606676D02*
X8650190Y-11406676D01*
X8631143Y-11435248D01*
X8612095Y-11454295D01*
X8593048Y-11463819D01*
X8888286Y-11406676D02*
X8793048Y-11406676D01*
X8783524Y-11501914D01*
X8793048Y-11492390D01*
X8812095Y-11482867D01*
X8859714Y-11482867D01*
X8878762Y-11492390D01*
X8888286Y-11501914D01*
X8897810Y-11520962D01*
X8897810Y-11568581D01*
X8888286Y-11587628D01*
X8878762Y-11597152D01*
X8859714Y-11606676D01*
X8812095Y-11606676D01*
X8793048Y-11597152D01*
X8783524Y-11587628D01*
X8964476Y-11406676D02*
X9097810Y-11406676D01*
X9012095Y-11606676D01*
X9164476Y-11406676D02*
X9164476Y-11444771D01*
X9240667Y-11406676D02*
X9240667Y-11444771D01*
X9535905Y-11682867D02*
X9526381Y-11673343D01*
X9507333Y-11644771D01*
X9497810Y-11625724D01*
X9488286Y-11597152D01*
X9478762Y-11549533D01*
X9478762Y-11511438D01*
X9488286Y-11463819D01*
X9497810Y-11435248D01*
X9507333Y-11416200D01*
X9526381Y-11387628D01*
X9535905Y-11378105D01*
X9640667Y-11492390D02*
X9621619Y-11482867D01*
X9612095Y-11473343D01*
X9602571Y-11454295D01*
X9602571Y-11444771D01*
X9612095Y-11425724D01*
X9621619Y-11416200D01*
X9640667Y-11406676D01*
X9678762Y-11406676D01*
X9697810Y-11416200D01*
X9707333Y-11425724D01*
X9716857Y-11444771D01*
X9716857Y-11454295D01*
X9707333Y-11473343D01*
X9697810Y-11482867D01*
X9678762Y-11492390D01*
X9640667Y-11492390D01*
X9621619Y-11501914D01*
X9612095Y-11511438D01*
X9602571Y-11530486D01*
X9602571Y-11568581D01*
X9612095Y-11587628D01*
X9621619Y-11597152D01*
X9640667Y-11606676D01*
X9678762Y-11606676D01*
X9697810Y-11597152D01*
X9707333Y-11587628D01*
X9716857Y-11568581D01*
X9716857Y-11530486D01*
X9707333Y-11511438D01*
X9697810Y-11501914D01*
X9678762Y-11492390D01*
X9793048Y-11425724D02*
X9802571Y-11416200D01*
X9821619Y-11406676D01*
X9869238Y-11406676D01*
X9888286Y-11416200D01*
X9897810Y-11425724D01*
X9907333Y-11444771D01*
X9907333Y-11463819D01*
X9897810Y-11492390D01*
X9783524Y-11606676D01*
X9907333Y-11606676D01*
X10145429Y-11606676D02*
X10145429Y-11406676D01*
X10231143Y-11606676D02*
X10231143Y-11501914D01*
X10221619Y-11482867D01*
X10202571Y-11473343D01*
X10174000Y-11473343D01*
X10154952Y-11482867D01*
X10145429Y-11492390D01*
X10354952Y-11606676D02*
X10335905Y-11597152D01*
X10326381Y-11587628D01*
X10316857Y-11568581D01*
X10316857Y-11511438D01*
X10326381Y-11492390D01*
X10335905Y-11482867D01*
X10354952Y-11473343D01*
X10383524Y-11473343D01*
X10402571Y-11482867D01*
X10412095Y-11492390D01*
X10421619Y-11511438D01*
X10421619Y-11568581D01*
X10412095Y-11587628D01*
X10402571Y-11597152D01*
X10383524Y-11606676D01*
X10354952Y-11606676D01*
X10535905Y-11606676D02*
X10516857Y-11597152D01*
X10507333Y-11578105D01*
X10507333Y-11406676D01*
X10688286Y-11597152D02*
X10669238Y-11606676D01*
X10631143Y-11606676D01*
X10612095Y-11597152D01*
X10602571Y-11578105D01*
X10602571Y-11501914D01*
X10612095Y-11482867D01*
X10631143Y-11473343D01*
X10669238Y-11473343D01*
X10688286Y-11482867D01*
X10697810Y-11501914D01*
X10697810Y-11520962D01*
X10602571Y-11540009D01*
X10774000Y-11597152D02*
X10793048Y-11606676D01*
X10831143Y-11606676D01*
X10850190Y-11597152D01*
X10859714Y-11578105D01*
X10859714Y-11568581D01*
X10850190Y-11549533D01*
X10831143Y-11540009D01*
X10802571Y-11540009D01*
X10783524Y-11530486D01*
X10774000Y-11511438D01*
X10774000Y-11501914D01*
X10783524Y-11482867D01*
X10802571Y-11473343D01*
X10831143Y-11473343D01*
X10850190Y-11482867D01*
X10926381Y-11682867D02*
X10935905Y-11673343D01*
X10954952Y-11644771D01*
X10964476Y-11625724D01*
X10974000Y-11597152D01*
X10983524Y-11549533D01*
X10983524Y-11511438D01*
X10974000Y-11463819D01*
X10964476Y-11435248D01*
X10954952Y-11416200D01*
X10935905Y-11387628D01*
X10926381Y-11378105D01*
D13*
X5964000Y-11780200D02*
G75*
G03*
X5964000Y-11780200I-31500J0D01*
G01*
D11*
X6259714Y-11670676D02*
X6278762Y-11670676D01*
X6297809Y-11680200D01*
X6307333Y-11689724D01*
X6316857Y-11708771D01*
X6326381Y-11746867D01*
X6326381Y-11794486D01*
X6316857Y-11832581D01*
X6307333Y-11851628D01*
X6297809Y-11861152D01*
X6278762Y-11870676D01*
X6259714Y-11870676D01*
X6240667Y-11861152D01*
X6231143Y-11851628D01*
X6221619Y-11832581D01*
X6212095Y-11794486D01*
X6212095Y-11746867D01*
X6221619Y-11708771D01*
X6231143Y-11689724D01*
X6240667Y-11680200D01*
X6259714Y-11670676D01*
X6412095Y-11851628D02*
X6421619Y-11861152D01*
X6412095Y-11870676D01*
X6402571Y-11861152D01*
X6412095Y-11851628D01*
X6412095Y-11870676D01*
X6593048Y-11670676D02*
X6554952Y-11670676D01*
X6535905Y-11680200D01*
X6526381Y-11689724D01*
X6507333Y-11718295D01*
X6497809Y-11756390D01*
X6497809Y-11832581D01*
X6507333Y-11851628D01*
X6516857Y-11861152D01*
X6535905Y-11870676D01*
X6574000Y-11870676D01*
X6593048Y-11861152D01*
X6602571Y-11851628D01*
X6612095Y-11832581D01*
X6612095Y-11784962D01*
X6602571Y-11765914D01*
X6593048Y-11756390D01*
X6574000Y-11746867D01*
X6535905Y-11746867D01*
X6516857Y-11756390D01*
X6507333Y-11765914D01*
X6497809Y-11784962D01*
X6678762Y-11670676D02*
X6802571Y-11670676D01*
X6735905Y-11746867D01*
X6764476Y-11746867D01*
X6783524Y-11756390D01*
X6793048Y-11765914D01*
X6802571Y-11784962D01*
X6802571Y-11832581D01*
X6793048Y-11851628D01*
X6783524Y-11861152D01*
X6764476Y-11870676D01*
X6707333Y-11870676D01*
X6688286Y-11861152D01*
X6678762Y-11851628D01*
X6926381Y-11670676D02*
X6945428Y-11670676D01*
X6964476Y-11680200D01*
X6974000Y-11689724D01*
X6983524Y-11708771D01*
X6993048Y-11746867D01*
X6993048Y-11794486D01*
X6983524Y-11832581D01*
X6974000Y-11851628D01*
X6964476Y-11861152D01*
X6945428Y-11870676D01*
X6926381Y-11870676D01*
X6907333Y-11861152D01*
X6897809Y-11851628D01*
X6888286Y-11832581D01*
X6878762Y-11794486D01*
X6878762Y-11746867D01*
X6888286Y-11708771D01*
X6897809Y-11689724D01*
X6907333Y-11680200D01*
X6926381Y-11670676D01*
X7078762Y-11870676D02*
X7078762Y-11737343D01*
X7078762Y-11756390D02*
X7088286Y-11746867D01*
X7107333Y-11737343D01*
X7135905Y-11737343D01*
X7154952Y-11746867D01*
X7164476Y-11765914D01*
X7164476Y-11870676D01*
X7164476Y-11765914D02*
X7174000Y-11746867D01*
X7193048Y-11737343D01*
X7221619Y-11737343D01*
X7240667Y-11746867D01*
X7250190Y-11765914D01*
X7250190Y-11870676D01*
X7345428Y-11870676D02*
X7345428Y-11737343D01*
X7345428Y-11756390D02*
X7354952Y-11746867D01*
X7374000Y-11737343D01*
X7402571Y-11737343D01*
X7421619Y-11746867D01*
X7431143Y-11765914D01*
X7431143Y-11870676D01*
X7431143Y-11765914D02*
X7440667Y-11746867D01*
X7459714Y-11737343D01*
X7488286Y-11737343D01*
X7507333Y-11746867D01*
X7516857Y-11765914D01*
X7516857Y-11870676D01*
X7907333Y-11661152D02*
X7735905Y-11918295D01*
X8164476Y-11670676D02*
X8183524Y-11670676D01*
X8202571Y-11680200D01*
X8212095Y-11689724D01*
X8221619Y-11708771D01*
X8231143Y-11746867D01*
X8231143Y-11794486D01*
X8221619Y-11832581D01*
X8212095Y-11851628D01*
X8202571Y-11861152D01*
X8183524Y-11870676D01*
X8164476Y-11870676D01*
X8145428Y-11861152D01*
X8135905Y-11851628D01*
X8126381Y-11832581D01*
X8116857Y-11794486D01*
X8116857Y-11746867D01*
X8126381Y-11708771D01*
X8135905Y-11689724D01*
X8145428Y-11680200D01*
X8164476Y-11670676D01*
X8316857Y-11851628D02*
X8326381Y-11861152D01*
X8316857Y-11870676D01*
X8307333Y-11861152D01*
X8316857Y-11851628D01*
X8316857Y-11870676D01*
X8450190Y-11670676D02*
X8469238Y-11670676D01*
X8488286Y-11680200D01*
X8497810Y-11689724D01*
X8507333Y-11708771D01*
X8516857Y-11746867D01*
X8516857Y-11794486D01*
X8507333Y-11832581D01*
X8497810Y-11851628D01*
X8488286Y-11861152D01*
X8469238Y-11870676D01*
X8450190Y-11870676D01*
X8431143Y-11861152D01*
X8421619Y-11851628D01*
X8412095Y-11832581D01*
X8402571Y-11794486D01*
X8402571Y-11746867D01*
X8412095Y-11708771D01*
X8421619Y-11689724D01*
X8431143Y-11680200D01*
X8450190Y-11670676D01*
X8593048Y-11689724D02*
X8602571Y-11680200D01*
X8621619Y-11670676D01*
X8669238Y-11670676D01*
X8688286Y-11680200D01*
X8697810Y-11689724D01*
X8707333Y-11708771D01*
X8707333Y-11727819D01*
X8697810Y-11756390D01*
X8583524Y-11870676D01*
X8707333Y-11870676D01*
X8878762Y-11737343D02*
X8878762Y-11870676D01*
X8831143Y-11661152D02*
X8783524Y-11804009D01*
X8907333Y-11804009D01*
X9012095Y-11756390D02*
X8993048Y-11746867D01*
X8983524Y-11737343D01*
X8974000Y-11718295D01*
X8974000Y-11708771D01*
X8983524Y-11689724D01*
X8993048Y-11680200D01*
X9012095Y-11670676D01*
X9050190Y-11670676D01*
X9069238Y-11680200D01*
X9078762Y-11689724D01*
X9088286Y-11708771D01*
X9088286Y-11718295D01*
X9078762Y-11737343D01*
X9069238Y-11746867D01*
X9050190Y-11756390D01*
X9012095Y-11756390D01*
X8993048Y-11765914D01*
X8983524Y-11775438D01*
X8974000Y-11794486D01*
X8974000Y-11832581D01*
X8983524Y-11851628D01*
X8993048Y-11861152D01*
X9012095Y-11870676D01*
X9050190Y-11870676D01*
X9069238Y-11861152D01*
X9078762Y-11851628D01*
X9088286Y-11832581D01*
X9088286Y-11794486D01*
X9078762Y-11775438D01*
X9069238Y-11765914D01*
X9050190Y-11756390D01*
X9164476Y-11670676D02*
X9164476Y-11708771D01*
X9240667Y-11670676D02*
X9240667Y-11708771D01*
X9535905Y-11946867D02*
X9526381Y-11937343D01*
X9507333Y-11908771D01*
X9497810Y-11889724D01*
X9488286Y-11861152D01*
X9478762Y-11813533D01*
X9478762Y-11775438D01*
X9488286Y-11727819D01*
X9497810Y-11699248D01*
X9507333Y-11680200D01*
X9526381Y-11651628D01*
X9535905Y-11642105D01*
X9602571Y-11689724D02*
X9612095Y-11680200D01*
X9631143Y-11670676D01*
X9678762Y-11670676D01*
X9697810Y-11680200D01*
X9707333Y-11689724D01*
X9716857Y-11708771D01*
X9716857Y-11727819D01*
X9707333Y-11756390D01*
X9593048Y-11870676D01*
X9716857Y-11870676D01*
X9954952Y-11870676D02*
X9954952Y-11670676D01*
X10040667Y-11870676D02*
X10040667Y-11765914D01*
X10031143Y-11746867D01*
X10012095Y-11737343D01*
X9983524Y-11737343D01*
X9964476Y-11746867D01*
X9954952Y-11756390D01*
X10164476Y-11870676D02*
X10145429Y-11861152D01*
X10135905Y-11851628D01*
X10126381Y-11832581D01*
X10126381Y-11775438D01*
X10135905Y-11756390D01*
X10145429Y-11746867D01*
X10164476Y-11737343D01*
X10193048Y-11737343D01*
X10212095Y-11746867D01*
X10221619Y-11756390D01*
X10231143Y-11775438D01*
X10231143Y-11832581D01*
X10221619Y-11851628D01*
X10212095Y-11861152D01*
X10193048Y-11870676D01*
X10164476Y-11870676D01*
X10345429Y-11870676D02*
X10326381Y-11861152D01*
X10316857Y-11842105D01*
X10316857Y-11670676D01*
X10497810Y-11861152D02*
X10478762Y-11870676D01*
X10440667Y-11870676D01*
X10421619Y-11861152D01*
X10412095Y-11842105D01*
X10412095Y-11765914D01*
X10421619Y-11746867D01*
X10440667Y-11737343D01*
X10478762Y-11737343D01*
X10497810Y-11746867D01*
X10507333Y-11765914D01*
X10507333Y-11784962D01*
X10412095Y-11804009D01*
X10583524Y-11861152D02*
X10602571Y-11870676D01*
X10640667Y-11870676D01*
X10659714Y-11861152D01*
X10669238Y-11842105D01*
X10669238Y-11832581D01*
X10659714Y-11813533D01*
X10640667Y-11804009D01*
X10612095Y-11804009D01*
X10593048Y-11794486D01*
X10583524Y-11775438D01*
X10583524Y-11765914D01*
X10593048Y-11746867D01*
X10612095Y-11737343D01*
X10640667Y-11737343D01*
X10659714Y-11746867D01*
X10735905Y-11946867D02*
X10745429Y-11937343D01*
X10764476Y-11908771D01*
X10774000Y-11889724D01*
X10783524Y-11861152D01*
X10793048Y-11813533D01*
X10793048Y-11775438D01*
X10783524Y-11727819D01*
X10774000Y-11699248D01*
X10764476Y-11680200D01*
X10745429Y-11651628D01*
X10735905Y-11642105D01*
D14*
X5924000Y-12004200D02*
X5924000Y-12084200D01*
X5884000Y-12044200D02*
X5964000Y-12044200D01*
D11*
X6259714Y-11934676D02*
X6278762Y-11934676D01*
X6297809Y-11944200D01*
X6307333Y-11953724D01*
X6316857Y-11972771D01*
X6326381Y-12010867D01*
X6326381Y-12058486D01*
X6316857Y-12096581D01*
X6307333Y-12115628D01*
X6297809Y-12125152D01*
X6278762Y-12134676D01*
X6259714Y-12134676D01*
X6240667Y-12125152D01*
X6231143Y-12115628D01*
X6221619Y-12096581D01*
X6212095Y-12058486D01*
X6212095Y-12010867D01*
X6221619Y-11972771D01*
X6231143Y-11953724D01*
X6240667Y-11944200D01*
X6259714Y-11934676D01*
X6412095Y-12115628D02*
X6421619Y-12125152D01*
X6412095Y-12134676D01*
X6402571Y-12125152D01*
X6412095Y-12115628D01*
X6412095Y-12134676D01*
X6535905Y-12020390D02*
X6516857Y-12010867D01*
X6507333Y-12001343D01*
X6497809Y-11982295D01*
X6497809Y-11972771D01*
X6507333Y-11953724D01*
X6516857Y-11944200D01*
X6535905Y-11934676D01*
X6574000Y-11934676D01*
X6593048Y-11944200D01*
X6602571Y-11953724D01*
X6612095Y-11972771D01*
X6612095Y-11982295D01*
X6602571Y-12001343D01*
X6593048Y-12010867D01*
X6574000Y-12020390D01*
X6535905Y-12020390D01*
X6516857Y-12029914D01*
X6507333Y-12039438D01*
X6497809Y-12058486D01*
X6497809Y-12096581D01*
X6507333Y-12115628D01*
X6516857Y-12125152D01*
X6535905Y-12134676D01*
X6574000Y-12134676D01*
X6593048Y-12125152D01*
X6602571Y-12115628D01*
X6612095Y-12096581D01*
X6612095Y-12058486D01*
X6602571Y-12039438D01*
X6593048Y-12029914D01*
X6574000Y-12020390D01*
X6735905Y-11934676D02*
X6754952Y-11934676D01*
X6774000Y-11944200D01*
X6783524Y-11953724D01*
X6793048Y-11972771D01*
X6802571Y-12010867D01*
X6802571Y-12058486D01*
X6793048Y-12096581D01*
X6783524Y-12115628D01*
X6774000Y-12125152D01*
X6754952Y-12134676D01*
X6735905Y-12134676D01*
X6716857Y-12125152D01*
X6707333Y-12115628D01*
X6697809Y-12096581D01*
X6688286Y-12058486D01*
X6688286Y-12010867D01*
X6697809Y-11972771D01*
X6707333Y-11953724D01*
X6716857Y-11944200D01*
X6735905Y-11934676D01*
X6926381Y-11934676D02*
X6945428Y-11934676D01*
X6964476Y-11944200D01*
X6974000Y-11953724D01*
X6983524Y-11972771D01*
X6993048Y-12010867D01*
X6993048Y-12058486D01*
X6983524Y-12096581D01*
X6974000Y-12115628D01*
X6964476Y-12125152D01*
X6945428Y-12134676D01*
X6926381Y-12134676D01*
X6907333Y-12125152D01*
X6897809Y-12115628D01*
X6888286Y-12096581D01*
X6878762Y-12058486D01*
X6878762Y-12010867D01*
X6888286Y-11972771D01*
X6897809Y-11953724D01*
X6907333Y-11944200D01*
X6926381Y-11934676D01*
X7078762Y-12134676D02*
X7078762Y-12001343D01*
X7078762Y-12020390D02*
X7088286Y-12010867D01*
X7107333Y-12001343D01*
X7135905Y-12001343D01*
X7154952Y-12010867D01*
X7164476Y-12029914D01*
X7164476Y-12134676D01*
X7164476Y-12029914D02*
X7174000Y-12010867D01*
X7193048Y-12001343D01*
X7221619Y-12001343D01*
X7240667Y-12010867D01*
X7250190Y-12029914D01*
X7250190Y-12134676D01*
X7345428Y-12134676D02*
X7345428Y-12001343D01*
X7345428Y-12020390D02*
X7354952Y-12010867D01*
X7374000Y-12001343D01*
X7402571Y-12001343D01*
X7421619Y-12010867D01*
X7431143Y-12029914D01*
X7431143Y-12134676D01*
X7431143Y-12029914D02*
X7440667Y-12010867D01*
X7459714Y-12001343D01*
X7488286Y-12001343D01*
X7507333Y-12010867D01*
X7516857Y-12029914D01*
X7516857Y-12134676D01*
X7907333Y-11925152D02*
X7735905Y-12182295D01*
X8164476Y-11934676D02*
X8183524Y-11934676D01*
X8202571Y-11944200D01*
X8212095Y-11953724D01*
X8221619Y-11972771D01*
X8231143Y-12010867D01*
X8231143Y-12058486D01*
X8221619Y-12096581D01*
X8212095Y-12115628D01*
X8202571Y-12125152D01*
X8183524Y-12134676D01*
X8164476Y-12134676D01*
X8145428Y-12125152D01*
X8135905Y-12115628D01*
X8126381Y-12096581D01*
X8116857Y-12058486D01*
X8116857Y-12010867D01*
X8126381Y-11972771D01*
X8135905Y-11953724D01*
X8145428Y-11944200D01*
X8164476Y-11934676D01*
X8316857Y-12115628D02*
X8326381Y-12125152D01*
X8316857Y-12134676D01*
X8307333Y-12125152D01*
X8316857Y-12115628D01*
X8316857Y-12134676D01*
X8450190Y-11934676D02*
X8469238Y-11934676D01*
X8488286Y-11944200D01*
X8497810Y-11953724D01*
X8507333Y-11972771D01*
X8516857Y-12010867D01*
X8516857Y-12058486D01*
X8507333Y-12096581D01*
X8497810Y-12115628D01*
X8488286Y-12125152D01*
X8469238Y-12134676D01*
X8450190Y-12134676D01*
X8431143Y-12125152D01*
X8421619Y-12115628D01*
X8412095Y-12096581D01*
X8402571Y-12058486D01*
X8402571Y-12010867D01*
X8412095Y-11972771D01*
X8421619Y-11953724D01*
X8431143Y-11944200D01*
X8450190Y-11934676D01*
X8583524Y-11934676D02*
X8707333Y-11934676D01*
X8640667Y-12010867D01*
X8669238Y-12010867D01*
X8688286Y-12020390D01*
X8697810Y-12029914D01*
X8707333Y-12048962D01*
X8707333Y-12096581D01*
X8697810Y-12115628D01*
X8688286Y-12125152D01*
X8669238Y-12134676D01*
X8612095Y-12134676D01*
X8593048Y-12125152D01*
X8583524Y-12115628D01*
X8897810Y-12134676D02*
X8783524Y-12134676D01*
X8840667Y-12134676D02*
X8840667Y-11934676D01*
X8821619Y-11963248D01*
X8802571Y-11982295D01*
X8783524Y-11991819D01*
X9078762Y-11934676D02*
X8983524Y-11934676D01*
X8974000Y-12029914D01*
X8983524Y-12020390D01*
X9002571Y-12010867D01*
X9050190Y-12010867D01*
X9069238Y-12020390D01*
X9078762Y-12029914D01*
X9088286Y-12048962D01*
X9088286Y-12096581D01*
X9078762Y-12115628D01*
X9069238Y-12125152D01*
X9050190Y-12134676D01*
X9002571Y-12134676D01*
X8983524Y-12125152D01*
X8974000Y-12115628D01*
X9164476Y-11934676D02*
X9164476Y-11972771D01*
X9240667Y-11934676D02*
X9240667Y-11972771D01*
X9535905Y-12210867D02*
X9526381Y-12201343D01*
X9507333Y-12172771D01*
X9497810Y-12153724D01*
X9488286Y-12125152D01*
X9478762Y-12077533D01*
X9478762Y-12039438D01*
X9488286Y-11991819D01*
X9497810Y-11963248D01*
X9507333Y-11944200D01*
X9526381Y-11915628D01*
X9535905Y-11906105D01*
X9716857Y-12134676D02*
X9602571Y-12134676D01*
X9659714Y-12134676D02*
X9659714Y-11934676D01*
X9640667Y-11963248D01*
X9621619Y-11982295D01*
X9602571Y-11991819D01*
X9840667Y-11934676D02*
X9859714Y-11934676D01*
X9878762Y-11944200D01*
X9888286Y-11953724D01*
X9897810Y-11972771D01*
X9907333Y-12010867D01*
X9907333Y-12058486D01*
X9897810Y-12096581D01*
X9888286Y-12115628D01*
X9878762Y-12125152D01*
X9859714Y-12134676D01*
X9840667Y-12134676D01*
X9821619Y-12125152D01*
X9812095Y-12115628D01*
X9802571Y-12096581D01*
X9793048Y-12058486D01*
X9793048Y-12010867D01*
X9802571Y-11972771D01*
X9812095Y-11953724D01*
X9821619Y-11944200D01*
X9840667Y-11934676D01*
X10145429Y-12134676D02*
X10145429Y-11934676D01*
X10231143Y-12134676D02*
X10231143Y-12029914D01*
X10221619Y-12010867D01*
X10202571Y-12001343D01*
X10174000Y-12001343D01*
X10154952Y-12010867D01*
X10145429Y-12020390D01*
X10354952Y-12134676D02*
X10335905Y-12125152D01*
X10326381Y-12115628D01*
X10316857Y-12096581D01*
X10316857Y-12039438D01*
X10326381Y-12020390D01*
X10335905Y-12010867D01*
X10354952Y-12001343D01*
X10383524Y-12001343D01*
X10402571Y-12010867D01*
X10412095Y-12020390D01*
X10421619Y-12039438D01*
X10421619Y-12096581D01*
X10412095Y-12115628D01*
X10402571Y-12125152D01*
X10383524Y-12134676D01*
X10354952Y-12134676D01*
X10535905Y-12134676D02*
X10516857Y-12125152D01*
X10507333Y-12106105D01*
X10507333Y-11934676D01*
X10688286Y-12125152D02*
X10669238Y-12134676D01*
X10631143Y-12134676D01*
X10612095Y-12125152D01*
X10602571Y-12106105D01*
X10602571Y-12029914D01*
X10612095Y-12010867D01*
X10631143Y-12001343D01*
X10669238Y-12001343D01*
X10688286Y-12010867D01*
X10697810Y-12029914D01*
X10697810Y-12048962D01*
X10602571Y-12068009D01*
X10774000Y-12125152D02*
X10793048Y-12134676D01*
X10831143Y-12134676D01*
X10850190Y-12125152D01*
X10859714Y-12106105D01*
X10859714Y-12096581D01*
X10850190Y-12077533D01*
X10831143Y-12068009D01*
X10802571Y-12068009D01*
X10783524Y-12058486D01*
X10774000Y-12039438D01*
X10774000Y-12029914D01*
X10783524Y-12010867D01*
X10802571Y-12001343D01*
X10831143Y-12001343D01*
X10850190Y-12010867D01*
X10926381Y-12210867D02*
X10935905Y-12201343D01*
X10954952Y-12172771D01*
X10964476Y-12153724D01*
X10974000Y-12125152D01*
X10983524Y-12077533D01*
X10983524Y-12039438D01*
X10974000Y-11991819D01*
X10964476Y-11963248D01*
X10954952Y-11944200D01*
X10935905Y-11915628D01*
X10926381Y-11906105D01*
D15*
X5950527Y-12340727D02*
X5950527Y-12275673D01*
X5885473Y-12275673D01*
X5885473Y-12340727D01*
X5950527Y-12340727D01*
D11*
X6259714Y-12198676D02*
X6278762Y-12198676D01*
X6297809Y-12208200D01*
X6307333Y-12217724D01*
X6316857Y-12236771D01*
X6326381Y-12274867D01*
X6326381Y-12322486D01*
X6316857Y-12360581D01*
X6307333Y-12379628D01*
X6297809Y-12389152D01*
X6278762Y-12398676D01*
X6259714Y-12398676D01*
X6240667Y-12389152D01*
X6231143Y-12379628D01*
X6221619Y-12360581D01*
X6212095Y-12322486D01*
X6212095Y-12274867D01*
X6221619Y-12236771D01*
X6231143Y-12217724D01*
X6240667Y-12208200D01*
X6259714Y-12198676D01*
X6412095Y-12379628D02*
X6421619Y-12389152D01*
X6412095Y-12398676D01*
X6402571Y-12389152D01*
X6412095Y-12379628D01*
X6412095Y-12398676D01*
X6516857Y-12398676D02*
X6554952Y-12398676D01*
X6574000Y-12389152D01*
X6583524Y-12379628D01*
X6602571Y-12351057D01*
X6612095Y-12312962D01*
X6612095Y-12236771D01*
X6602571Y-12217724D01*
X6593048Y-12208200D01*
X6574000Y-12198676D01*
X6535905Y-12198676D01*
X6516857Y-12208200D01*
X6507333Y-12217724D01*
X6497809Y-12236771D01*
X6497809Y-12284390D01*
X6507333Y-12303438D01*
X6516857Y-12312962D01*
X6535905Y-12322486D01*
X6574000Y-12322486D01*
X6593048Y-12312962D01*
X6602571Y-12303438D01*
X6612095Y-12284390D01*
X6688286Y-12217724D02*
X6697809Y-12208200D01*
X6716857Y-12198676D01*
X6764476Y-12198676D01*
X6783524Y-12208200D01*
X6793048Y-12217724D01*
X6802571Y-12236771D01*
X6802571Y-12255819D01*
X6793048Y-12284390D01*
X6678762Y-12398676D01*
X6802571Y-12398676D01*
X6926381Y-12198676D02*
X6945428Y-12198676D01*
X6964476Y-12208200D01*
X6974000Y-12217724D01*
X6983524Y-12236771D01*
X6993048Y-12274867D01*
X6993048Y-12322486D01*
X6983524Y-12360581D01*
X6974000Y-12379628D01*
X6964476Y-12389152D01*
X6945428Y-12398676D01*
X6926381Y-12398676D01*
X6907333Y-12389152D01*
X6897809Y-12379628D01*
X6888286Y-12360581D01*
X6878762Y-12322486D01*
X6878762Y-12274867D01*
X6888286Y-12236771D01*
X6897809Y-12217724D01*
X6907333Y-12208200D01*
X6926381Y-12198676D01*
X7078762Y-12398676D02*
X7078762Y-12265343D01*
X7078762Y-12284390D02*
X7088286Y-12274867D01*
X7107333Y-12265343D01*
X7135905Y-12265343D01*
X7154952Y-12274867D01*
X7164476Y-12293914D01*
X7164476Y-12398676D01*
X7164476Y-12293914D02*
X7174000Y-12274867D01*
X7193048Y-12265343D01*
X7221619Y-12265343D01*
X7240667Y-12274867D01*
X7250190Y-12293914D01*
X7250190Y-12398676D01*
X7345428Y-12398676D02*
X7345428Y-12265343D01*
X7345428Y-12284390D02*
X7354952Y-12274867D01*
X7374000Y-12265343D01*
X7402571Y-12265343D01*
X7421619Y-12274867D01*
X7431143Y-12293914D01*
X7431143Y-12398676D01*
X7431143Y-12293914D02*
X7440667Y-12274867D01*
X7459714Y-12265343D01*
X7488286Y-12265343D01*
X7507333Y-12274867D01*
X7516857Y-12293914D01*
X7516857Y-12398676D01*
X7907333Y-12189152D02*
X7735905Y-12446295D01*
X8164476Y-12198676D02*
X8183524Y-12198676D01*
X8202571Y-12208200D01*
X8212095Y-12217724D01*
X8221619Y-12236771D01*
X8231143Y-12274867D01*
X8231143Y-12322486D01*
X8221619Y-12360581D01*
X8212095Y-12379628D01*
X8202571Y-12389152D01*
X8183524Y-12398676D01*
X8164476Y-12398676D01*
X8145428Y-12389152D01*
X8135905Y-12379628D01*
X8126381Y-12360581D01*
X8116857Y-12322486D01*
X8116857Y-12274867D01*
X8126381Y-12236771D01*
X8135905Y-12217724D01*
X8145428Y-12208200D01*
X8164476Y-12198676D01*
X8316857Y-12379628D02*
X8326381Y-12389152D01*
X8316857Y-12398676D01*
X8307333Y-12389152D01*
X8316857Y-12379628D01*
X8316857Y-12398676D01*
X8450190Y-12198676D02*
X8469238Y-12198676D01*
X8488286Y-12208200D01*
X8497810Y-12217724D01*
X8507333Y-12236771D01*
X8516857Y-12274867D01*
X8516857Y-12322486D01*
X8507333Y-12360581D01*
X8497810Y-12379628D01*
X8488286Y-12389152D01*
X8469238Y-12398676D01*
X8450190Y-12398676D01*
X8431143Y-12389152D01*
X8421619Y-12379628D01*
X8412095Y-12360581D01*
X8402571Y-12322486D01*
X8402571Y-12274867D01*
X8412095Y-12236771D01*
X8421619Y-12217724D01*
X8431143Y-12208200D01*
X8450190Y-12198676D01*
X8583524Y-12198676D02*
X8707333Y-12198676D01*
X8640667Y-12274867D01*
X8669238Y-12274867D01*
X8688286Y-12284390D01*
X8697810Y-12293914D01*
X8707333Y-12312962D01*
X8707333Y-12360581D01*
X8697810Y-12379628D01*
X8688286Y-12389152D01*
X8669238Y-12398676D01*
X8612095Y-12398676D01*
X8593048Y-12389152D01*
X8583524Y-12379628D01*
X8878762Y-12198676D02*
X8840667Y-12198676D01*
X8821619Y-12208200D01*
X8812095Y-12217724D01*
X8793048Y-12246295D01*
X8783524Y-12284390D01*
X8783524Y-12360581D01*
X8793048Y-12379628D01*
X8802571Y-12389152D01*
X8821619Y-12398676D01*
X8859714Y-12398676D01*
X8878762Y-12389152D01*
X8888286Y-12379628D01*
X8897810Y-12360581D01*
X8897810Y-12312962D01*
X8888286Y-12293914D01*
X8878762Y-12284390D01*
X8859714Y-12274867D01*
X8821619Y-12274867D01*
X8802571Y-12284390D01*
X8793048Y-12293914D01*
X8783524Y-12312962D01*
X8974000Y-12217724D02*
X8983524Y-12208200D01*
X9002571Y-12198676D01*
X9050190Y-12198676D01*
X9069238Y-12208200D01*
X9078762Y-12217724D01*
X9088286Y-12236771D01*
X9088286Y-12255819D01*
X9078762Y-12284390D01*
X8964476Y-12398676D01*
X9088286Y-12398676D01*
X9164476Y-12198676D02*
X9164476Y-12236771D01*
X9240667Y-12198676D02*
X9240667Y-12236771D01*
X9535905Y-12474867D02*
X9526381Y-12465343D01*
X9507333Y-12436771D01*
X9497810Y-12417724D01*
X9488286Y-12389152D01*
X9478762Y-12341533D01*
X9478762Y-12303438D01*
X9488286Y-12255819D01*
X9497810Y-12227248D01*
X9507333Y-12208200D01*
X9526381Y-12179628D01*
X9535905Y-12170105D01*
X9716857Y-12398676D02*
X9602571Y-12398676D01*
X9659714Y-12398676D02*
X9659714Y-12198676D01*
X9640667Y-12227248D01*
X9621619Y-12246295D01*
X9602571Y-12255819D01*
X9888286Y-12198676D02*
X9850190Y-12198676D01*
X9831143Y-12208200D01*
X9821619Y-12217724D01*
X9802571Y-12246295D01*
X9793048Y-12284390D01*
X9793048Y-12360581D01*
X9802571Y-12379628D01*
X9812095Y-12389152D01*
X9831143Y-12398676D01*
X9869238Y-12398676D01*
X9888286Y-12389152D01*
X9897810Y-12379628D01*
X9907333Y-12360581D01*
X9907333Y-12312962D01*
X9897810Y-12293914D01*
X9888286Y-12284390D01*
X9869238Y-12274867D01*
X9831143Y-12274867D01*
X9812095Y-12284390D01*
X9802571Y-12293914D01*
X9793048Y-12312962D01*
X10145429Y-12398676D02*
X10145429Y-12198676D01*
X10231143Y-12398676D02*
X10231143Y-12293914D01*
X10221619Y-12274867D01*
X10202571Y-12265343D01*
X10174000Y-12265343D01*
X10154952Y-12274867D01*
X10145429Y-12284390D01*
X10354952Y-12398676D02*
X10335905Y-12389152D01*
X10326381Y-12379628D01*
X10316857Y-12360581D01*
X10316857Y-12303438D01*
X10326381Y-12284390D01*
X10335905Y-12274867D01*
X10354952Y-12265343D01*
X10383524Y-12265343D01*
X10402571Y-12274867D01*
X10412095Y-12284390D01*
X10421619Y-12303438D01*
X10421619Y-12360581D01*
X10412095Y-12379628D01*
X10402571Y-12389152D01*
X10383524Y-12398676D01*
X10354952Y-12398676D01*
X10535905Y-12398676D02*
X10516857Y-12389152D01*
X10507333Y-12370105D01*
X10507333Y-12198676D01*
X10688286Y-12389152D02*
X10669238Y-12398676D01*
X10631143Y-12398676D01*
X10612095Y-12389152D01*
X10602571Y-12370105D01*
X10602571Y-12293914D01*
X10612095Y-12274867D01*
X10631143Y-12265343D01*
X10669238Y-12265343D01*
X10688286Y-12274867D01*
X10697810Y-12293914D01*
X10697810Y-12312962D01*
X10602571Y-12332009D01*
X10774000Y-12389152D02*
X10793048Y-12398676D01*
X10831143Y-12398676D01*
X10850190Y-12389152D01*
X10859714Y-12370105D01*
X10859714Y-12360581D01*
X10850190Y-12341533D01*
X10831143Y-12332009D01*
X10802571Y-12332009D01*
X10783524Y-12322486D01*
X10774000Y-12303438D01*
X10774000Y-12293914D01*
X10783524Y-12274867D01*
X10802571Y-12265343D01*
X10831143Y-12265343D01*
X10850190Y-12274867D01*
X10926381Y-12474867D02*
X10935905Y-12465343D01*
X10954952Y-12436771D01*
X10964476Y-12417724D01*
X10974000Y-12389152D01*
X10983524Y-12341533D01*
X10983524Y-12303438D01*
X10974000Y-12255819D01*
X10964476Y-12227248D01*
X10954952Y-12208200D01*
X10935905Y-12179628D01*
X10926381Y-12170105D01*
D10*
X5914000Y-12622200D02*
X5964000Y-12572200D01*
X5914000Y-12522200D01*
X5864000Y-12572200D01*
X5914000Y-12622200D01*
D11*
X6326381Y-12662676D02*
X6212095Y-12662676D01*
X6269238Y-12662676D02*
X6269238Y-12462676D01*
X6250190Y-12491248D01*
X6231143Y-12510295D01*
X6212095Y-12519819D01*
X6412095Y-12643628D02*
X6421619Y-12653152D01*
X6412095Y-12662676D01*
X6402571Y-12653152D01*
X6412095Y-12643628D01*
X6412095Y-12662676D01*
X6545428Y-12462676D02*
X6564476Y-12462676D01*
X6583524Y-12472200D01*
X6593048Y-12481724D01*
X6602571Y-12500771D01*
X6612095Y-12538867D01*
X6612095Y-12586486D01*
X6602571Y-12624581D01*
X6593048Y-12643628D01*
X6583524Y-12653152D01*
X6564476Y-12662676D01*
X6545428Y-12662676D01*
X6526381Y-12653152D01*
X6516857Y-12643628D01*
X6507333Y-12624581D01*
X6497809Y-12586486D01*
X6497809Y-12538867D01*
X6507333Y-12500771D01*
X6516857Y-12481724D01*
X6526381Y-12472200D01*
X6545428Y-12462676D01*
X6735905Y-12462676D02*
X6754952Y-12462676D01*
X6774000Y-12472200D01*
X6783524Y-12481724D01*
X6793048Y-12500771D01*
X6802571Y-12538867D01*
X6802571Y-12586486D01*
X6793048Y-12624581D01*
X6783524Y-12643628D01*
X6774000Y-12653152D01*
X6754952Y-12662676D01*
X6735905Y-12662676D01*
X6716857Y-12653152D01*
X6707333Y-12643628D01*
X6697809Y-12624581D01*
X6688286Y-12586486D01*
X6688286Y-12538867D01*
X6697809Y-12500771D01*
X6707333Y-12481724D01*
X6716857Y-12472200D01*
X6735905Y-12462676D01*
X6926381Y-12462676D02*
X6945428Y-12462676D01*
X6964476Y-12472200D01*
X6974000Y-12481724D01*
X6983524Y-12500771D01*
X6993048Y-12538867D01*
X6993048Y-12586486D01*
X6983524Y-12624581D01*
X6974000Y-12643628D01*
X6964476Y-12653152D01*
X6945428Y-12662676D01*
X6926381Y-12662676D01*
X6907333Y-12653152D01*
X6897809Y-12643628D01*
X6888286Y-12624581D01*
X6878762Y-12586486D01*
X6878762Y-12538867D01*
X6888286Y-12500771D01*
X6897809Y-12481724D01*
X6907333Y-12472200D01*
X6926381Y-12462676D01*
X7078762Y-12662676D02*
X7078762Y-12529343D01*
X7078762Y-12548390D02*
X7088286Y-12538867D01*
X7107333Y-12529343D01*
X7135905Y-12529343D01*
X7154952Y-12538867D01*
X7164476Y-12557914D01*
X7164476Y-12662676D01*
X7164476Y-12557914D02*
X7174000Y-12538867D01*
X7193048Y-12529343D01*
X7221619Y-12529343D01*
X7240667Y-12538867D01*
X7250190Y-12557914D01*
X7250190Y-12662676D01*
X7345428Y-12662676D02*
X7345428Y-12529343D01*
X7345428Y-12548390D02*
X7354952Y-12538867D01*
X7374000Y-12529343D01*
X7402571Y-12529343D01*
X7421619Y-12538867D01*
X7431143Y-12557914D01*
X7431143Y-12662676D01*
X7431143Y-12557914D02*
X7440667Y-12538867D01*
X7459714Y-12529343D01*
X7488286Y-12529343D01*
X7507333Y-12538867D01*
X7516857Y-12557914D01*
X7516857Y-12662676D01*
X7907333Y-12453152D02*
X7735905Y-12710295D01*
X8164476Y-12462676D02*
X8183524Y-12462676D01*
X8202571Y-12472200D01*
X8212095Y-12481724D01*
X8221619Y-12500771D01*
X8231143Y-12538867D01*
X8231143Y-12586486D01*
X8221619Y-12624581D01*
X8212095Y-12643628D01*
X8202571Y-12653152D01*
X8183524Y-12662676D01*
X8164476Y-12662676D01*
X8145428Y-12653152D01*
X8135905Y-12643628D01*
X8126381Y-12624581D01*
X8116857Y-12586486D01*
X8116857Y-12538867D01*
X8126381Y-12500771D01*
X8135905Y-12481724D01*
X8145428Y-12472200D01*
X8164476Y-12462676D01*
X8316857Y-12643628D02*
X8326381Y-12653152D01*
X8316857Y-12662676D01*
X8307333Y-12653152D01*
X8316857Y-12643628D01*
X8316857Y-12662676D01*
X8450190Y-12462676D02*
X8469238Y-12462676D01*
X8488286Y-12472200D01*
X8497810Y-12481724D01*
X8507333Y-12500771D01*
X8516857Y-12538867D01*
X8516857Y-12586486D01*
X8507333Y-12624581D01*
X8497810Y-12643628D01*
X8488286Y-12653152D01*
X8469238Y-12662676D01*
X8450190Y-12662676D01*
X8431143Y-12653152D01*
X8421619Y-12643628D01*
X8412095Y-12624581D01*
X8402571Y-12586486D01*
X8402571Y-12538867D01*
X8412095Y-12500771D01*
X8421619Y-12481724D01*
X8431143Y-12472200D01*
X8450190Y-12462676D01*
X8583524Y-12462676D02*
X8707333Y-12462676D01*
X8640667Y-12538867D01*
X8669238Y-12538867D01*
X8688286Y-12548390D01*
X8697810Y-12557914D01*
X8707333Y-12576962D01*
X8707333Y-12624581D01*
X8697810Y-12643628D01*
X8688286Y-12653152D01*
X8669238Y-12662676D01*
X8612095Y-12662676D01*
X8593048Y-12653152D01*
X8583524Y-12643628D01*
X8802571Y-12662676D02*
X8840667Y-12662676D01*
X8859714Y-12653152D01*
X8869238Y-12643628D01*
X8888286Y-12615057D01*
X8897810Y-12576962D01*
X8897810Y-12500771D01*
X8888286Y-12481724D01*
X8878762Y-12472200D01*
X8859714Y-12462676D01*
X8821619Y-12462676D01*
X8802571Y-12472200D01*
X8793048Y-12481724D01*
X8783524Y-12500771D01*
X8783524Y-12548390D01*
X8793048Y-12567438D01*
X8802571Y-12576962D01*
X8821619Y-12586486D01*
X8859714Y-12586486D01*
X8878762Y-12576962D01*
X8888286Y-12567438D01*
X8897810Y-12548390D01*
X9069238Y-12529343D02*
X9069238Y-12662676D01*
X9021619Y-12453152D02*
X8974000Y-12596009D01*
X9097810Y-12596009D01*
X9164476Y-12462676D02*
X9164476Y-12500771D01*
X9240667Y-12462676D02*
X9240667Y-12500771D01*
X9535905Y-12738867D02*
X9526381Y-12729343D01*
X9507333Y-12700771D01*
X9497810Y-12681724D01*
X9488286Y-12653152D01*
X9478762Y-12605533D01*
X9478762Y-12567438D01*
X9488286Y-12519819D01*
X9497810Y-12491248D01*
X9507333Y-12472200D01*
X9526381Y-12443628D01*
X9535905Y-12434105D01*
X9593048Y-12462676D02*
X9716857Y-12462676D01*
X9650190Y-12538867D01*
X9678762Y-12538867D01*
X9697810Y-12548390D01*
X9707333Y-12557914D01*
X9716857Y-12576962D01*
X9716857Y-12624581D01*
X9707333Y-12643628D01*
X9697810Y-12653152D01*
X9678762Y-12662676D01*
X9621619Y-12662676D01*
X9602571Y-12653152D01*
X9593048Y-12643628D01*
X9954952Y-12662676D02*
X9954952Y-12462676D01*
X10040667Y-12662676D02*
X10040667Y-12557914D01*
X10031143Y-12538867D01*
X10012095Y-12529343D01*
X9983524Y-12529343D01*
X9964476Y-12538867D01*
X9954952Y-12548390D01*
X10164476Y-12662676D02*
X10145429Y-12653152D01*
X10135905Y-12643628D01*
X10126381Y-12624581D01*
X10126381Y-12567438D01*
X10135905Y-12548390D01*
X10145429Y-12538867D01*
X10164476Y-12529343D01*
X10193048Y-12529343D01*
X10212095Y-12538867D01*
X10221619Y-12548390D01*
X10231143Y-12567438D01*
X10231143Y-12624581D01*
X10221619Y-12643628D01*
X10212095Y-12653152D01*
X10193048Y-12662676D01*
X10164476Y-12662676D01*
X10345429Y-12662676D02*
X10326381Y-12653152D01*
X10316857Y-12634105D01*
X10316857Y-12462676D01*
X10497810Y-12653152D02*
X10478762Y-12662676D01*
X10440667Y-12662676D01*
X10421619Y-12653152D01*
X10412095Y-12634105D01*
X10412095Y-12557914D01*
X10421619Y-12538867D01*
X10440667Y-12529343D01*
X10478762Y-12529343D01*
X10497810Y-12538867D01*
X10507333Y-12557914D01*
X10507333Y-12576962D01*
X10412095Y-12596009D01*
X10583524Y-12653152D02*
X10602571Y-12662676D01*
X10640667Y-12662676D01*
X10659714Y-12653152D01*
X10669238Y-12634105D01*
X10669238Y-12624581D01*
X10659714Y-12605533D01*
X10640667Y-12596009D01*
X10612095Y-12596009D01*
X10593048Y-12586486D01*
X10583524Y-12567438D01*
X10583524Y-12557914D01*
X10593048Y-12538867D01*
X10612095Y-12529343D01*
X10640667Y-12529343D01*
X10659714Y-12538867D01*
X10735905Y-12738867D02*
X10745429Y-12729343D01*
X10764476Y-12700771D01*
X10774000Y-12681724D01*
X10783524Y-12653152D01*
X10793048Y-12605533D01*
X10793048Y-12567438D01*
X10783524Y-12519819D01*
X10774000Y-12491248D01*
X10764476Y-12472200D01*
X10745429Y-12443628D01*
X10735905Y-12434105D01*
X5764000Y-12736200D02*
X5964000Y-12936200D01*
X5964000Y-12736200D02*
X5764000Y-12936200D01*
X5964000Y-12836200D02*
G75*
G03*
X5964000Y-12836200I-100000J0D01*
G01*
X6212095Y-12745724D02*
X6221619Y-12736200D01*
X6240667Y-12726676D01*
X6288286Y-12726676D01*
X6307333Y-12736200D01*
X6316857Y-12745724D01*
X6326381Y-12764771D01*
X6326381Y-12783819D01*
X6316857Y-12812390D01*
X6202571Y-12926676D01*
X6326381Y-12926676D01*
X6412095Y-12907628D02*
X6421619Y-12917152D01*
X6412095Y-12926676D01*
X6402571Y-12917152D01*
X6412095Y-12907628D01*
X6412095Y-12926676D01*
X6488286Y-12726676D02*
X6612095Y-12726676D01*
X6545428Y-12802867D01*
X6574000Y-12802867D01*
X6593048Y-12812390D01*
X6602571Y-12821914D01*
X6612095Y-12840962D01*
X6612095Y-12888581D01*
X6602571Y-12907628D01*
X6593048Y-12917152D01*
X6574000Y-12926676D01*
X6516857Y-12926676D01*
X6497809Y-12917152D01*
X6488286Y-12907628D01*
X6735905Y-12726676D02*
X6754952Y-12726676D01*
X6774000Y-12736200D01*
X6783524Y-12745724D01*
X6793048Y-12764771D01*
X6802571Y-12802867D01*
X6802571Y-12850486D01*
X6793048Y-12888581D01*
X6783524Y-12907628D01*
X6774000Y-12917152D01*
X6754952Y-12926676D01*
X6735905Y-12926676D01*
X6716857Y-12917152D01*
X6707333Y-12907628D01*
X6697809Y-12888581D01*
X6688286Y-12850486D01*
X6688286Y-12802867D01*
X6697809Y-12764771D01*
X6707333Y-12745724D01*
X6716857Y-12736200D01*
X6735905Y-12726676D01*
X6926381Y-12726676D02*
X6945428Y-12726676D01*
X6964476Y-12736200D01*
X6974000Y-12745724D01*
X6983524Y-12764771D01*
X6993048Y-12802867D01*
X6993048Y-12850486D01*
X6983524Y-12888581D01*
X6974000Y-12907628D01*
X6964476Y-12917152D01*
X6945428Y-12926676D01*
X6926381Y-12926676D01*
X6907333Y-12917152D01*
X6897809Y-12907628D01*
X6888286Y-12888581D01*
X6878762Y-12850486D01*
X6878762Y-12802867D01*
X6888286Y-12764771D01*
X6897809Y-12745724D01*
X6907333Y-12736200D01*
X6926381Y-12726676D01*
X7078762Y-12926676D02*
X7078762Y-12793343D01*
X7078762Y-12812390D02*
X7088286Y-12802867D01*
X7107333Y-12793343D01*
X7135905Y-12793343D01*
X7154952Y-12802867D01*
X7164476Y-12821914D01*
X7164476Y-12926676D01*
X7164476Y-12821914D02*
X7174000Y-12802867D01*
X7193048Y-12793343D01*
X7221619Y-12793343D01*
X7240667Y-12802867D01*
X7250190Y-12821914D01*
X7250190Y-12926676D01*
X7345428Y-12926676D02*
X7345428Y-12793343D01*
X7345428Y-12812390D02*
X7354952Y-12802867D01*
X7374000Y-12793343D01*
X7402571Y-12793343D01*
X7421619Y-12802867D01*
X7431143Y-12821914D01*
X7431143Y-12926676D01*
X7431143Y-12821914D02*
X7440667Y-12802867D01*
X7459714Y-12793343D01*
X7488286Y-12793343D01*
X7507333Y-12802867D01*
X7516857Y-12821914D01*
X7516857Y-12926676D01*
X7907333Y-12717152D02*
X7735905Y-12974295D01*
X8164476Y-12726676D02*
X8183524Y-12726676D01*
X8202571Y-12736200D01*
X8212095Y-12745724D01*
X8221619Y-12764771D01*
X8231143Y-12802867D01*
X8231143Y-12850486D01*
X8221619Y-12888581D01*
X8212095Y-12907628D01*
X8202571Y-12917152D01*
X8183524Y-12926676D01*
X8164476Y-12926676D01*
X8145428Y-12917152D01*
X8135905Y-12907628D01*
X8126381Y-12888581D01*
X8116857Y-12850486D01*
X8116857Y-12802867D01*
X8126381Y-12764771D01*
X8135905Y-12745724D01*
X8145428Y-12736200D01*
X8164476Y-12726676D01*
X8316857Y-12907628D02*
X8326381Y-12917152D01*
X8316857Y-12926676D01*
X8307333Y-12917152D01*
X8316857Y-12907628D01*
X8316857Y-12926676D01*
X8450190Y-12726676D02*
X8469238Y-12726676D01*
X8488286Y-12736200D01*
X8497810Y-12745724D01*
X8507333Y-12764771D01*
X8516857Y-12802867D01*
X8516857Y-12850486D01*
X8507333Y-12888581D01*
X8497810Y-12907628D01*
X8488286Y-12917152D01*
X8469238Y-12926676D01*
X8450190Y-12926676D01*
X8431143Y-12917152D01*
X8421619Y-12907628D01*
X8412095Y-12888581D01*
X8402571Y-12850486D01*
X8402571Y-12802867D01*
X8412095Y-12764771D01*
X8421619Y-12745724D01*
X8431143Y-12736200D01*
X8450190Y-12726676D01*
X8612095Y-12926676D02*
X8650190Y-12926676D01*
X8669238Y-12917152D01*
X8678762Y-12907628D01*
X8697810Y-12879057D01*
X8707333Y-12840962D01*
X8707333Y-12764771D01*
X8697810Y-12745724D01*
X8688286Y-12736200D01*
X8669238Y-12726676D01*
X8631143Y-12726676D01*
X8612095Y-12736200D01*
X8602571Y-12745724D01*
X8593048Y-12764771D01*
X8593048Y-12812390D01*
X8602571Y-12831438D01*
X8612095Y-12840962D01*
X8631143Y-12850486D01*
X8669238Y-12850486D01*
X8688286Y-12840962D01*
X8697810Y-12831438D01*
X8707333Y-12812390D01*
X8831143Y-12726676D02*
X8850190Y-12726676D01*
X8869238Y-12736200D01*
X8878762Y-12745724D01*
X8888286Y-12764771D01*
X8897810Y-12802867D01*
X8897810Y-12850486D01*
X8888286Y-12888581D01*
X8878762Y-12907628D01*
X8869238Y-12917152D01*
X8850190Y-12926676D01*
X8831143Y-12926676D01*
X8812095Y-12917152D01*
X8802571Y-12907628D01*
X8793048Y-12888581D01*
X8783524Y-12850486D01*
X8783524Y-12802867D01*
X8793048Y-12764771D01*
X8802571Y-12745724D01*
X8812095Y-12736200D01*
X8831143Y-12726676D01*
X9069238Y-12726676D02*
X9031143Y-12726676D01*
X9012095Y-12736200D01*
X9002571Y-12745724D01*
X8983524Y-12774295D01*
X8974000Y-12812390D01*
X8974000Y-12888581D01*
X8983524Y-12907628D01*
X8993048Y-12917152D01*
X9012095Y-12926676D01*
X9050190Y-12926676D01*
X9069238Y-12917152D01*
X9078762Y-12907628D01*
X9088286Y-12888581D01*
X9088286Y-12840962D01*
X9078762Y-12821914D01*
X9069238Y-12812390D01*
X9050190Y-12802867D01*
X9012095Y-12802867D01*
X8993048Y-12812390D01*
X8983524Y-12821914D01*
X8974000Y-12840962D01*
X9164476Y-12726676D02*
X9164476Y-12764771D01*
X9240667Y-12726676D02*
X9240667Y-12764771D01*
X9535905Y-13002867D02*
X9526381Y-12993343D01*
X9507333Y-12964771D01*
X9497810Y-12945724D01*
X9488286Y-12917152D01*
X9478762Y-12869533D01*
X9478762Y-12831438D01*
X9488286Y-12783819D01*
X9497810Y-12755248D01*
X9507333Y-12736200D01*
X9526381Y-12707628D01*
X9535905Y-12698105D01*
X9640667Y-12812390D02*
X9621619Y-12802867D01*
X9612095Y-12793343D01*
X9602571Y-12774295D01*
X9602571Y-12764771D01*
X9612095Y-12745724D01*
X9621619Y-12736200D01*
X9640667Y-12726676D01*
X9678762Y-12726676D01*
X9697810Y-12736200D01*
X9707333Y-12745724D01*
X9716857Y-12764771D01*
X9716857Y-12774295D01*
X9707333Y-12793343D01*
X9697810Y-12802867D01*
X9678762Y-12812390D01*
X9640667Y-12812390D01*
X9621619Y-12821914D01*
X9612095Y-12831438D01*
X9602571Y-12850486D01*
X9602571Y-12888581D01*
X9612095Y-12907628D01*
X9621619Y-12917152D01*
X9640667Y-12926676D01*
X9678762Y-12926676D01*
X9697810Y-12917152D01*
X9707333Y-12907628D01*
X9716857Y-12888581D01*
X9716857Y-12850486D01*
X9707333Y-12831438D01*
X9697810Y-12821914D01*
X9678762Y-12812390D01*
X9954952Y-12926676D02*
X9954952Y-12726676D01*
X10040667Y-12926676D02*
X10040667Y-12821914D01*
X10031143Y-12802867D01*
X10012095Y-12793343D01*
X9983524Y-12793343D01*
X9964476Y-12802867D01*
X9954952Y-12812390D01*
X10164476Y-12926676D02*
X10145429Y-12917152D01*
X10135905Y-12907628D01*
X10126381Y-12888581D01*
X10126381Y-12831438D01*
X10135905Y-12812390D01*
X10145429Y-12802867D01*
X10164476Y-12793343D01*
X10193048Y-12793343D01*
X10212095Y-12802867D01*
X10221619Y-12812390D01*
X10231143Y-12831438D01*
X10231143Y-12888581D01*
X10221619Y-12907628D01*
X10212095Y-12917152D01*
X10193048Y-12926676D01*
X10164476Y-12926676D01*
X10345429Y-12926676D02*
X10326381Y-12917152D01*
X10316857Y-12898105D01*
X10316857Y-12726676D01*
X10497810Y-12917152D02*
X10478762Y-12926676D01*
X10440667Y-12926676D01*
X10421619Y-12917152D01*
X10412095Y-12898105D01*
X10412095Y-12821914D01*
X10421619Y-12802867D01*
X10440667Y-12793343D01*
X10478762Y-12793343D01*
X10497810Y-12802867D01*
X10507333Y-12821914D01*
X10507333Y-12840962D01*
X10412095Y-12860009D01*
X10583524Y-12917152D02*
X10602571Y-12926676D01*
X10640667Y-12926676D01*
X10659714Y-12917152D01*
X10669238Y-12898105D01*
X10669238Y-12888581D01*
X10659714Y-12869533D01*
X10640667Y-12860009D01*
X10612095Y-12860009D01*
X10593048Y-12850486D01*
X10583524Y-12831438D01*
X10583524Y-12821914D01*
X10593048Y-12802867D01*
X10612095Y-12793343D01*
X10640667Y-12793343D01*
X10659714Y-12802867D01*
X10735905Y-13002867D02*
X10745429Y-12993343D01*
X10764476Y-12964771D01*
X10774000Y-12945724D01*
X10783524Y-12917152D01*
X10793048Y-12869533D01*
X10793048Y-12831438D01*
X10783524Y-12783819D01*
X10774000Y-12755248D01*
X10764476Y-12736200D01*
X10745429Y-12707628D01*
X10735905Y-12698105D01*
M02*
