%TF.GenerationSoftware,KiCad,Pcbnew,(6.0.10)*%
%TF.CreationDate,2023-01-17T15:39:30+01:00*%
%TF.ProjectId,kvm,6b766d2e-6b69-4636-9164-5f7063625858,v01*%
%TF.SameCoordinates,Original*%
%TF.FileFunction,Soldermask,Bot*%
%TF.FilePolarity,Negative*%
%FSLAX46Y46*%
G04 Gerber Fmt 4.6, Leading zero omitted, Abs format (unit mm)*
G04 Created by KiCad (PCBNEW (6.0.10)) date 2023-01-17 15:39:30*
%MOMM*%
%LPD*%
G01*
G04 APERTURE LIST*
%ADD10R,1.500000X1.500000*%
%ADD11C,1.500000*%
%ADD12C,3.000000*%
%ADD13R,1.600000X1.600000*%
%ADD14C,1.600000*%
%ADD15C,0.001000*%
%ADD16R,1.700000X1.700000*%
%ADD17O,1.700000X1.700000*%
%ADD18C,1.155000*%
G04 APERTURE END LIST*
D10*
X74825000Y-76129000D03*
D11*
X74825000Y-78629000D03*
X74825000Y-80629000D03*
X74825000Y-83129000D03*
X72205000Y-76129000D03*
X72205000Y-78629000D03*
X72205000Y-80629000D03*
X72205000Y-83129000D03*
D12*
X75175000Y-86199000D03*
X69495000Y-73059000D03*
X75175000Y-73059000D03*
X69495000Y-86199000D03*
D13*
X80772000Y-68302339D03*
D14*
X80772000Y-66302339D03*
D15*
X65976000Y-49880000D03*
X65976000Y-44100000D03*
D13*
X87503000Y-74009000D03*
D14*
X87503000Y-72009000D03*
D16*
X95011000Y-54610000D03*
D17*
X97551000Y-54610000D03*
X100091000Y-54610000D03*
D13*
X84201000Y-89630000D03*
D14*
X84201000Y-87630000D03*
D15*
X65976000Y-64739000D03*
X65976000Y-58959000D03*
D13*
X81179500Y-48485988D03*
D14*
X81179500Y-50485988D03*
D13*
X87172800Y-95096521D03*
D14*
X87172800Y-93096521D03*
D10*
X74825000Y-95630010D03*
D11*
X74825000Y-98130010D03*
X74825000Y-100130010D03*
X74825000Y-102630010D03*
X72205000Y-95630010D03*
X72205000Y-98130010D03*
X72205000Y-100130010D03*
X72205000Y-102630010D03*
D12*
X69495000Y-92560010D03*
X75175000Y-105700010D03*
X75175000Y-92560010D03*
X69495000Y-105700010D03*
D18*
X103986000Y-98044000D03*
X108866000Y-98044000D03*
M02*
