%TF.GenerationSoftware,KiCad,Pcbnew,(6.0.10)*%
%TF.CreationDate,2023-01-17T15:39:29+01:00*%
%TF.ProjectId,kvm,6b766d2e-6b69-4636-9164-5f7063625858,v01*%
%TF.SameCoordinates,Original*%
%TF.FileFunction,Copper,L1,Top*%
%TF.FilePolarity,Positive*%
%FSLAX46Y46*%
G04 Gerber Fmt 4.6, Leading zero omitted, Abs format (unit mm)*
G04 Created by KiCad (PCBNEW (6.0.10)) date 2023-01-17 15:39:29*
%MOMM*%
%LPD*%
G01*
G04 APERTURE LIST*
G04 Aperture macros list*
%AMRoundRect*
0 Rectangle with rounded corners*
0 $1 Rounding radius*
0 $2 $3 $4 $5 $6 $7 $8 $9 X,Y pos of 4 corners*
0 Add a 4 corners polygon primitive as box body*
4,1,4,$2,$3,$4,$5,$6,$7,$8,$9,$2,$3,0*
0 Add four circle primitives for the rounded corners*
1,1,$1+$1,$2,$3*
1,1,$1+$1,$4,$5*
1,1,$1+$1,$6,$7*
1,1,$1+$1,$8,$9*
0 Add four rect primitives between the rounded corners*
20,1,$1+$1,$2,$3,$4,$5,0*
20,1,$1+$1,$4,$5,$6,$7,0*
20,1,$1+$1,$6,$7,$8,$9,0*
20,1,$1+$1,$8,$9,$2,$3,0*%
G04 Aperture macros list end*
%TA.AperFunction,SMDPad,CuDef*%
%ADD10RoundRect,0.237500X-0.250000X-0.237500X0.250000X-0.237500X0.250000X0.237500X-0.250000X0.237500X0*%
%TD*%
%TA.AperFunction,SMDPad,CuDef*%
%ADD11RoundRect,0.237500X0.300000X0.237500X-0.300000X0.237500X-0.300000X-0.237500X0.300000X-0.237500X0*%
%TD*%
%TA.AperFunction,SMDPad,CuDef*%
%ADD12RoundRect,0.250001X0.462499X0.624999X-0.462499X0.624999X-0.462499X-0.624999X0.462499X-0.624999X0*%
%TD*%
%TA.AperFunction,ComponentPad*%
%ADD13R,1.500000X1.500000*%
%TD*%
%TA.AperFunction,ComponentPad*%
%ADD14C,1.500000*%
%TD*%
%TA.AperFunction,ComponentPad*%
%ADD15C,3.000000*%
%TD*%
%TA.AperFunction,SMDPad,CuDef*%
%ADD16RoundRect,0.237500X-0.237500X0.300000X-0.237500X-0.300000X0.237500X-0.300000X0.237500X0.300000X0*%
%TD*%
%TA.AperFunction,SMDPad,CuDef*%
%ADD17RoundRect,0.237500X0.250000X0.237500X-0.250000X0.237500X-0.250000X-0.237500X0.250000X-0.237500X0*%
%TD*%
%TA.AperFunction,SMDPad,CuDef*%
%ADD18R,1.100000X1.100000*%
%TD*%
%TA.AperFunction,SMDPad,CuDef*%
%ADD19RoundRect,0.237500X0.237500X-0.300000X0.237500X0.300000X-0.237500X0.300000X-0.237500X-0.300000X0*%
%TD*%
%TA.AperFunction,SMDPad,CuDef*%
%ADD20RoundRect,0.237500X-0.300000X-0.237500X0.300000X-0.237500X0.300000X0.237500X-0.300000X0.237500X0*%
%TD*%
%TA.AperFunction,SMDPad,CuDef*%
%ADD21RoundRect,0.150000X-0.150000X0.512500X-0.150000X-0.512500X0.150000X-0.512500X0.150000X0.512500X0*%
%TD*%
%TA.AperFunction,ComponentPad*%
%ADD22R,1.600000X1.600000*%
%TD*%
%TA.AperFunction,ComponentPad*%
%ADD23C,1.600000*%
%TD*%
%TA.AperFunction,SMDPad,CuDef*%
%ADD24RoundRect,0.250000X0.475000X-0.337500X0.475000X0.337500X-0.475000X0.337500X-0.475000X-0.337500X0*%
%TD*%
%TA.AperFunction,SMDPad,CuDef*%
%ADD25R,1.150000X0.300000*%
%TD*%
%TA.AperFunction,SMDPad,CuDef*%
%ADD26R,2.000000X2.180000*%
%TD*%
%TA.AperFunction,SMDPad,CuDef*%
%ADD27RoundRect,0.237500X0.237500X-0.250000X0.237500X0.250000X-0.237500X0.250000X-0.237500X-0.250000X0*%
%TD*%
%TA.AperFunction,ComponentPad*%
%ADD28R,1.700000X1.700000*%
%TD*%
%TA.AperFunction,ComponentPad*%
%ADD29O,1.700000X1.700000*%
%TD*%
%TA.AperFunction,SMDPad,CuDef*%
%ADD30R,0.450000X1.750000*%
%TD*%
%TA.AperFunction,SMDPad,CuDef*%
%ADD31RoundRect,0.250000X-0.325000X-0.450000X0.325000X-0.450000X0.325000X0.450000X-0.325000X0.450000X0*%
%TD*%
%TA.AperFunction,SMDPad,CuDef*%
%ADD32R,1.400000X0.300000*%
%TD*%
%TA.AperFunction,SMDPad,CuDef*%
%ADD33RoundRect,0.150000X-0.512500X-0.150000X0.512500X-0.150000X0.512500X0.150000X-0.512500X0.150000X0*%
%TD*%
%TA.AperFunction,SMDPad,CuDef*%
%ADD34RoundRect,0.250001X-0.624999X0.462499X-0.624999X-0.462499X0.624999X-0.462499X0.624999X0.462499X0*%
%TD*%
%TA.AperFunction,ComponentPad*%
%ADD35C,1.155000*%
%TD*%
%TA.AperFunction,ViaPad*%
%ADD36C,0.800000*%
%TD*%
%TA.AperFunction,Conductor*%
%ADD37C,0.800000*%
%TD*%
%TA.AperFunction,Conductor*%
%ADD38C,0.250000*%
%TD*%
%TA.AperFunction,Conductor*%
%ADD39C,0.600000*%
%TD*%
%TA.AperFunction,Conductor*%
%ADD40C,0.400000*%
%TD*%
%TA.AperFunction,Conductor*%
%ADD41C,0.300000*%
%TD*%
%TA.AperFunction,Conductor*%
%ADD42C,0.500000*%
%TD*%
%TA.AperFunction,Conductor*%
%ADD43C,0.200000*%
%TD*%
G04 APERTURE END LIST*
D10*
X70334500Y-68834000D03*
X72159500Y-68834000D03*
D11*
X103097500Y-88265000D03*
X101372500Y-88265000D03*
D12*
X92165500Y-89662000D03*
X89190500Y-89662000D03*
D13*
X74825000Y-76129000D03*
D14*
X74825000Y-78629000D03*
X74825000Y-80629000D03*
X74825000Y-83129000D03*
X72205000Y-76129000D03*
X72205000Y-78629000D03*
X72205000Y-80629000D03*
X72205000Y-83129000D03*
D15*
X75175000Y-86199000D03*
X69495000Y-73059000D03*
X75175000Y-73059000D03*
X69495000Y-86199000D03*
D16*
X107543600Y-88418500D03*
X107543600Y-90143500D03*
D17*
X83843500Y-74771000D03*
X82018500Y-74771000D03*
X107882100Y-59096200D03*
X106057100Y-59096200D03*
X98829500Y-82489600D03*
X97004500Y-82489600D03*
D18*
X80166500Y-43342908D03*
X77366500Y-43342908D03*
D11*
X109828500Y-93345000D03*
X108103500Y-93345000D03*
D17*
X104102044Y-59096200D03*
X102277044Y-59096200D03*
D10*
X74906500Y-62738000D03*
X76731500Y-62738000D03*
X74906500Y-64770000D03*
X76731500Y-64770000D03*
D19*
X114757200Y-73684300D03*
X114757200Y-71959300D03*
D20*
X102642500Y-93345000D03*
X104367500Y-93345000D03*
D11*
X87251000Y-61214000D03*
X85526000Y-61214000D03*
D17*
X108354500Y-62738000D03*
X106529500Y-62738000D03*
D21*
X90009000Y-49763000D03*
X88109000Y-49763000D03*
X89059000Y-52038000D03*
D22*
X80772000Y-68302339D03*
D23*
X80772000Y-66302339D03*
D21*
X74737000Y-54996500D03*
X73787000Y-54996500D03*
X72837000Y-54996500D03*
X72837000Y-57271500D03*
X73787000Y-57271500D03*
X74737000Y-57271500D03*
X88707000Y-100716500D03*
X87757000Y-100716500D03*
X86807000Y-100716500D03*
X86807000Y-102991500D03*
X87757000Y-102991500D03*
X88707000Y-102991500D03*
D24*
X112572800Y-73631600D03*
X112572800Y-71556600D03*
D25*
X67051000Y-43640000D03*
X67051000Y-44440000D03*
X67051000Y-45740000D03*
X67051000Y-46740000D03*
X67051000Y-47240000D03*
X67051000Y-48240000D03*
X67051000Y-49540000D03*
X67051000Y-50340000D03*
X67051000Y-50040000D03*
X67051000Y-49240000D03*
X67051000Y-48740000D03*
X67051000Y-47740000D03*
X67051000Y-46240000D03*
X67051000Y-45240000D03*
X67051000Y-44740000D03*
X67051000Y-43940000D03*
D26*
X62546000Y-41880000D03*
X62546000Y-52100000D03*
X66476000Y-41880000D03*
X66476000Y-52100000D03*
D10*
X75541500Y-45974000D03*
X77366500Y-45974000D03*
D19*
X104952800Y-73379500D03*
X104952800Y-71654500D03*
D17*
X104239700Y-64770000D03*
X102414700Y-64770000D03*
D22*
X87503000Y-74009000D03*
D23*
X87503000Y-72009000D03*
D10*
X84558500Y-53340000D03*
X86383500Y-53340000D03*
D27*
X112826800Y-88620600D03*
X112826800Y-86795600D03*
D11*
X76681500Y-66929000D03*
X74956500Y-66929000D03*
D17*
X76731500Y-68808600D03*
X74906500Y-68808600D03*
D19*
X85370500Y-50239000D03*
X85370500Y-48514000D03*
D16*
X79044800Y-94041987D03*
X79044800Y-95766987D03*
D28*
X95011000Y-54610000D03*
D29*
X97551000Y-54610000D03*
X100091000Y-54610000D03*
D17*
X88447500Y-46202908D03*
X86622500Y-46202908D03*
D22*
X84201000Y-89630000D03*
D23*
X84201000Y-87630000D03*
D10*
X73155000Y-43342908D03*
X74980000Y-43342908D03*
D25*
X67051000Y-58499000D03*
X67051000Y-59299000D03*
X67051000Y-60599000D03*
X67051000Y-61599000D03*
X67051000Y-62099000D03*
X67051000Y-63099000D03*
X67051000Y-64399000D03*
X67051000Y-65199000D03*
X67051000Y-64899000D03*
X67051000Y-64099000D03*
X67051000Y-63599000D03*
X67051000Y-62599000D03*
X67051000Y-61099000D03*
X67051000Y-60099000D03*
X67051000Y-59599000D03*
X67051000Y-58799000D03*
D26*
X62546000Y-56739000D03*
X62546000Y-66959000D03*
X66476000Y-56739000D03*
X66476000Y-66959000D03*
D19*
X109474000Y-73379500D03*
X109474000Y-71654500D03*
D30*
X101693000Y-84499000D03*
X102343000Y-84499000D03*
X102993000Y-84499000D03*
X103643000Y-84499000D03*
X104293000Y-84499000D03*
X104943000Y-84499000D03*
X105593000Y-84499000D03*
X106243000Y-84499000D03*
X106893000Y-84499000D03*
X107543000Y-84499000D03*
X108193000Y-84499000D03*
X108843000Y-84499000D03*
X109493000Y-84499000D03*
X110143000Y-84499000D03*
X110143000Y-77299000D03*
X109493000Y-77299000D03*
X108843000Y-77299000D03*
X108193000Y-77299000D03*
X107543000Y-77299000D03*
X106893000Y-77299000D03*
X106243000Y-77299000D03*
X105593000Y-77299000D03*
X104943000Y-77299000D03*
X104293000Y-77299000D03*
X103643000Y-77299000D03*
X102993000Y-77299000D03*
X102343000Y-77299000D03*
X101693000Y-77299000D03*
D22*
X81179500Y-48485988D03*
D23*
X81179500Y-50485988D03*
D31*
X102492100Y-62525200D03*
X104542100Y-62525200D03*
D32*
X87290000Y-58912000D03*
X87290000Y-58412000D03*
X87290000Y-57912000D03*
X87290000Y-57412000D03*
X87290000Y-56912000D03*
X82890000Y-56912000D03*
X82890000Y-57412000D03*
X82890000Y-57912000D03*
X82890000Y-58412000D03*
X82890000Y-58912000D03*
D11*
X98779500Y-84521600D03*
X97054500Y-84521600D03*
D22*
X87172800Y-95096521D03*
D23*
X87172800Y-93096521D03*
D13*
X74825000Y-95630010D03*
D14*
X74825000Y-98130010D03*
X74825000Y-100130010D03*
X74825000Y-102630010D03*
X72205000Y-95630010D03*
X72205000Y-98130010D03*
X72205000Y-100130010D03*
X72205000Y-102630010D03*
D15*
X69495000Y-92560010D03*
X75175000Y-105700010D03*
X75175000Y-92560010D03*
X69495000Y-105700010D03*
D10*
X70080500Y-41275000D03*
X71905500Y-41275000D03*
D17*
X83259300Y-95869687D03*
X81434300Y-95869687D03*
D10*
X75541500Y-48133000D03*
X77366500Y-48133000D03*
D33*
X86143500Y-42204908D03*
X86143500Y-43154908D03*
X86143500Y-44104908D03*
X88418500Y-44104908D03*
X88418500Y-43154908D03*
X88418500Y-42204908D03*
D16*
X79832200Y-73044900D03*
X79832200Y-74769900D03*
D11*
X79856500Y-91541600D03*
X78131500Y-91541600D03*
D17*
X114755300Y-75717400D03*
X112930300Y-75717400D03*
D12*
X88482500Y-68199000D03*
X85507500Y-68199000D03*
D34*
X92202000Y-71283500D03*
X92202000Y-74258500D03*
D12*
X94705500Y-95250000D03*
X91730500Y-95250000D03*
D35*
X103986000Y-98044000D03*
X108866000Y-98044000D03*
D27*
X112826800Y-84859500D03*
X112826800Y-83034500D03*
D19*
X114604800Y-84811400D03*
X114604800Y-83086400D03*
D17*
X79906500Y-89560400D03*
X78081500Y-89560400D03*
D21*
X88199000Y-80269500D03*
X87249000Y-80269500D03*
X86299000Y-80269500D03*
X86299000Y-82544500D03*
X87249000Y-82544500D03*
X88199000Y-82544500D03*
D36*
X92202000Y-69469000D03*
X86868000Y-83947000D03*
X112776000Y-89916000D03*
X104902000Y-74676000D03*
X90043000Y-68199000D03*
X87376000Y-60071000D03*
X87122000Y-104521000D03*
X88773000Y-61214000D03*
X90196500Y-42264500D03*
X88037500Y-48233500D03*
X96266000Y-95250000D03*
X108712000Y-75311000D03*
X109474000Y-59055000D03*
X73787000Y-58674000D03*
X93853000Y-89662000D03*
X69088000Y-57531000D03*
X84735500Y-42929408D03*
X114681000Y-81788000D03*
X78359000Y-64770000D03*
X84608500Y-44042500D03*
X78359000Y-62738000D03*
X84074000Y-61214000D03*
X78994000Y-92837000D03*
X78651908Y-45974000D03*
X69088000Y-66294000D03*
X68961000Y-42926000D03*
X109474000Y-70358000D03*
X104902000Y-70231000D03*
X77978000Y-66548000D03*
X72898000Y-67437000D03*
X101346000Y-93345000D03*
X81153000Y-91567000D03*
X79883000Y-71628000D03*
X107569000Y-91440000D03*
X112776000Y-81788000D03*
X110363000Y-75692000D03*
X78651908Y-48133000D03*
X95631000Y-84455000D03*
X86995000Y-78994000D03*
X111252000Y-93345000D03*
X90170000Y-101854000D03*
X73406000Y-41275000D03*
X114681000Y-70612000D03*
X73660000Y-53467000D03*
X69215000Y-51689000D03*
X81280000Y-59436000D03*
X112649000Y-70358000D03*
X88646000Y-56134000D03*
X99822000Y-88265000D03*
X100965000Y-59055000D03*
X104013000Y-82550000D03*
X107569000Y-82804000D03*
X100457000Y-83058000D03*
X83211500Y-43026500D03*
X86360000Y-51816000D03*
X106045000Y-60706000D03*
X106045000Y-75438000D03*
X88900000Y-59055000D03*
X74803000Y-53467000D03*
X74676000Y-50419000D03*
X73787000Y-60424500D03*
X71755000Y-62357000D03*
X84963000Y-78994000D03*
X82677000Y-76962000D03*
X85344000Y-83439000D03*
X82677000Y-84709000D03*
X88392000Y-104612500D03*
X86106000Y-106553000D03*
X105781232Y-81035768D03*
X86233000Y-97790000D03*
X105038768Y-81778232D03*
X82423000Y-99060000D03*
X88265000Y-99314000D03*
X69723000Y-58928000D03*
X68961000Y-64262000D03*
X83312000Y-53467000D03*
X72009000Y-59309000D03*
X73533000Y-62738000D03*
X69215000Y-49403000D03*
X70739000Y-43942000D03*
X74422000Y-48133000D03*
X70612000Y-49911000D03*
D37*
X92202000Y-71283500D02*
X92202000Y-69469000D01*
X81915000Y-48514000D02*
X81207512Y-48514000D01*
X85524000Y-48360500D02*
X85370500Y-48514000D01*
D38*
X107882100Y-59096200D02*
X109432800Y-59096200D01*
X109432800Y-59096200D02*
X109474000Y-59055000D01*
X112826800Y-89865200D02*
X112776000Y-89916000D01*
D39*
X87214500Y-48868500D02*
X88109000Y-49763000D01*
D37*
X88482500Y-68199000D02*
X90043000Y-68199000D01*
X81179500Y-44355908D02*
X80166500Y-43342908D01*
D39*
X85370500Y-48514000D02*
X85725000Y-48868500D01*
D37*
X81179500Y-47598500D02*
X81179500Y-44355908D01*
D38*
X86640500Y-46201500D02*
X86639092Y-46202908D01*
D40*
X90136908Y-42204908D02*
X90196500Y-42264500D01*
D38*
X85979000Y-48514000D02*
X86640500Y-47852500D01*
D37*
X81179500Y-48485988D02*
X81179500Y-47598500D01*
D40*
X87376000Y-60071000D02*
X87376000Y-58998000D01*
D38*
X73787000Y-58674000D02*
X73787000Y-57271500D01*
X108843000Y-75442000D02*
X108712000Y-75311000D01*
D37*
X85370500Y-48514000D02*
X87757000Y-48514000D01*
D40*
X104952800Y-73379500D02*
X104952800Y-74625200D01*
X87251000Y-61214000D02*
X88773000Y-61214000D01*
D37*
X94705500Y-95250000D02*
X96266000Y-95250000D01*
X87757000Y-48514000D02*
X88037500Y-48233500D01*
D38*
X87249000Y-82544500D02*
X87249000Y-83566000D01*
D40*
X87340000Y-58962000D02*
X87290000Y-58962000D01*
X87251000Y-60196000D02*
X87376000Y-60071000D01*
D41*
X104943000Y-75987000D02*
X104943000Y-77299000D01*
D38*
X87757000Y-103886000D02*
X87122000Y-104521000D01*
D40*
X88418500Y-42204908D02*
X90136908Y-42204908D01*
D39*
X88109000Y-49763000D02*
X88109000Y-48305000D01*
D40*
X87376000Y-58998000D02*
X87340000Y-58962000D01*
D37*
X81179500Y-47598500D02*
X81179500Y-47778500D01*
D40*
X104952800Y-74625200D02*
X104902000Y-74676000D01*
D39*
X88109000Y-48305000D02*
X88037500Y-48233500D01*
D41*
X104902000Y-75946000D02*
X104943000Y-75987000D01*
D38*
X108843000Y-77299000D02*
X108843000Y-75442000D01*
D37*
X81207512Y-48514000D02*
X81179500Y-48485988D01*
D40*
X104902000Y-74676000D02*
X104902000Y-75946000D01*
D38*
X87757000Y-102991500D02*
X87757000Y-103886000D01*
D40*
X87251000Y-61214000D02*
X87251000Y-60196000D01*
D38*
X86639092Y-46202908D02*
X86622500Y-46202908D01*
D39*
X85725000Y-48868500D02*
X87214500Y-48868500D01*
D37*
X81179500Y-47778500D02*
X81915000Y-48514000D01*
D38*
X85370500Y-48514000D02*
X85979000Y-48514000D01*
D37*
X85370500Y-48514000D02*
X81915000Y-48514000D01*
D38*
X86640500Y-47852500D02*
X86640500Y-46201500D01*
X87249000Y-83566000D02*
X86868000Y-83947000D01*
X112826800Y-88620600D02*
X112826800Y-89865200D01*
D37*
X86132500Y-48360500D02*
X85524000Y-48360500D01*
X92165500Y-89662000D02*
X93853000Y-89662000D01*
D38*
X86133908Y-43154908D02*
X86132500Y-43153500D01*
D42*
X67945000Y-58674000D02*
X68580000Y-58039000D01*
D38*
X88011000Y-101854000D02*
X90170000Y-101854000D01*
X76731500Y-62738000D02*
X78359000Y-62738000D01*
D42*
X68580000Y-58039000D02*
X69088000Y-57531000D01*
D38*
X77366500Y-45974000D02*
X78651908Y-45974000D01*
X81804000Y-58912000D02*
X81280000Y-59436000D01*
X71905500Y-41275000D02*
X73406000Y-41275000D01*
D40*
X86143500Y-44104908D02*
X84670908Y-44104908D01*
D42*
X67818000Y-65024000D02*
X69088000Y-66294000D01*
D38*
X67691000Y-65151000D02*
X67691000Y-65024000D01*
X102642500Y-93345000D02*
X101346000Y-93345000D01*
X85526000Y-61214000D02*
X84074000Y-61214000D01*
X67691000Y-65024000D02*
X67691000Y-64897000D01*
X101006200Y-59096200D02*
X100965000Y-59055000D01*
X98829500Y-82489600D02*
X98829500Y-82746600D01*
X86132500Y-43153500D02*
X85908408Y-42929408D01*
X107569000Y-90168900D02*
X107543600Y-90143500D01*
X112826800Y-81838800D02*
X112776000Y-81788000D01*
X109828500Y-93345000D02*
X111252000Y-93345000D01*
X67053000Y-50038000D02*
X67051000Y-50040000D01*
X110143000Y-75912000D02*
X110363000Y-75692000D01*
D37*
X79044800Y-94041987D02*
X79044800Y-92887800D01*
D38*
X88519000Y-56261000D02*
X88646000Y-56134000D01*
X107569000Y-91440000D02*
X107569000Y-90168900D01*
X72898000Y-68199000D02*
X72898000Y-67437000D01*
D40*
X104952800Y-70281800D02*
X104902000Y-70231000D01*
D38*
X67691000Y-58674000D02*
X67691000Y-58547000D01*
X107543600Y-90143500D02*
X107543600Y-91414600D01*
X101372500Y-88265000D02*
X99822000Y-88265000D01*
D41*
X67866000Y-43640000D02*
X68580000Y-42926000D01*
D38*
X67691000Y-64897000D02*
X67053000Y-64897000D01*
D40*
X114757200Y-71959300D02*
X114757200Y-70688200D01*
X84670908Y-44104908D02*
X84608500Y-44042500D01*
D38*
X67051000Y-58799000D02*
X67689000Y-58799000D01*
X112826800Y-83034500D02*
X112826800Y-81838800D01*
X67689000Y-58799000D02*
X67691000Y-58801000D01*
X85908408Y-42929408D02*
X84735500Y-42929408D01*
X72263000Y-68834000D02*
X72898000Y-68199000D01*
D37*
X85370500Y-50239000D02*
X81426488Y-50239000D01*
D38*
X87249000Y-79248000D02*
X86995000Y-78994000D01*
X72159500Y-68834000D02*
X72263000Y-68834000D01*
D37*
X81127600Y-91541600D02*
X81153000Y-91567000D01*
X79044800Y-92887800D02*
X78994000Y-92837000D01*
X81426488Y-50239000D02*
X81179500Y-50485988D01*
D40*
X77597000Y-66929000D02*
X77978000Y-66548000D01*
D42*
X67691000Y-50165000D02*
X69215000Y-51689000D01*
D37*
X79856500Y-91541600D02*
X81127600Y-91541600D01*
D38*
X86143500Y-43154908D02*
X86133908Y-43154908D01*
X87757000Y-101600000D02*
X88011000Y-101854000D01*
D42*
X67691000Y-65024000D02*
X67818000Y-65024000D01*
D38*
X73787000Y-53594000D02*
X73787000Y-54996500D01*
X87868000Y-56912000D02*
X88519000Y-56261000D01*
D40*
X114757200Y-70688200D02*
X114681000Y-70612000D01*
D38*
X67691000Y-50292000D02*
X67643000Y-50340000D01*
D41*
X67051000Y-43940000D02*
X67947000Y-43940000D01*
D38*
X114604800Y-81864200D02*
X114681000Y-81788000D01*
X82890000Y-58912000D02*
X81804000Y-58912000D01*
X67691000Y-50165000D02*
X67691000Y-50292000D01*
X67643000Y-65199000D02*
X67691000Y-65151000D01*
X67051000Y-50340000D02*
X67643000Y-50340000D01*
X67053000Y-64897000D02*
X67051000Y-64899000D01*
X73660000Y-53467000D02*
X73787000Y-53594000D01*
X98829500Y-82746600D02*
X97054500Y-84521600D01*
X87757000Y-100716500D02*
X87757000Y-101600000D01*
X114604800Y-83086400D02*
X114604800Y-81864200D01*
X67051000Y-58499000D02*
X67739000Y-58499000D01*
X67051000Y-65199000D02*
X67643000Y-65199000D01*
X76731500Y-64770000D02*
X78359000Y-64770000D01*
X67643000Y-58499000D02*
X67051000Y-58499000D01*
X68707000Y-57531000D02*
X69088000Y-57531000D01*
X87249000Y-80269500D02*
X87249000Y-79248000D01*
D40*
X112572800Y-70434200D02*
X112649000Y-70358000D01*
D38*
X87290000Y-56912000D02*
X87868000Y-56912000D01*
D40*
X104952800Y-71654500D02*
X104952800Y-70281800D01*
D38*
X67691000Y-58801000D02*
X67691000Y-58674000D01*
X77366500Y-48133000D02*
X78651908Y-48133000D01*
X67739000Y-58499000D02*
X68707000Y-57531000D01*
X102277044Y-59096200D02*
X101006200Y-59096200D01*
D40*
X76681500Y-66929000D02*
X77597000Y-66929000D01*
X109474000Y-71654500D02*
X109474000Y-70358000D01*
D38*
X95697600Y-84521600D02*
X95631000Y-84455000D01*
D37*
X79832200Y-71678800D02*
X79883000Y-71628000D01*
D41*
X67947000Y-43940000D02*
X68961000Y-42926000D01*
D37*
X79832200Y-73044900D02*
X79832200Y-71678800D01*
D38*
X110143000Y-77299000D02*
X110143000Y-75912000D01*
D40*
X112572800Y-71556600D02*
X112572800Y-70434200D01*
D38*
X67691000Y-50038000D02*
X67053000Y-50038000D01*
X67691000Y-58547000D02*
X67643000Y-58499000D01*
X67691000Y-50038000D02*
X67691000Y-50165000D01*
D42*
X67691000Y-58674000D02*
X67945000Y-58674000D01*
D41*
X67051000Y-43640000D02*
X67866000Y-43640000D01*
D38*
X97054500Y-84521600D02*
X95697600Y-84521600D01*
X108966000Y-79121000D02*
X105015000Y-79121000D01*
X105015000Y-79121000D02*
X104293000Y-78399000D01*
D40*
X112930300Y-75717400D02*
X112930300Y-73989100D01*
D38*
X108354500Y-63984500D02*
X108354500Y-62738000D01*
X109493000Y-77299000D02*
X109493000Y-78594000D01*
X107950000Y-64389000D02*
X108204000Y-64135000D01*
X107950000Y-71855500D02*
X107950000Y-64389000D01*
D41*
X109493000Y-77299000D02*
X109493000Y-74219200D01*
D40*
X109726100Y-73631600D02*
X109474000Y-73379500D01*
D38*
X108204000Y-64135000D02*
X108354500Y-63984500D01*
X109493000Y-78594000D02*
X108966000Y-79121000D01*
X104239700Y-64770000D02*
X107569000Y-64770000D01*
X107569000Y-64770000D02*
X108204000Y-64135000D01*
X109474000Y-73379500D02*
X107950000Y-71855500D01*
X104293000Y-78399000D02*
X104293000Y-77299000D01*
D40*
X110080600Y-73631600D02*
X109726100Y-73631600D01*
D38*
X109493000Y-77299000D02*
X109493000Y-73398500D01*
D40*
X112930300Y-73989100D02*
X112572800Y-73631600D01*
D41*
X109493000Y-74219200D02*
X110080600Y-73631600D01*
D38*
X109493000Y-73398500D02*
X109474000Y-73379500D01*
D40*
X112572800Y-73631600D02*
X110080600Y-73631600D01*
D38*
X104367500Y-93345000D02*
X103986000Y-93726500D01*
X104943000Y-87163000D02*
X105410000Y-87630000D01*
X103986000Y-93726500D02*
X103986000Y-98044000D01*
X105410000Y-87630000D02*
X105410000Y-92302500D01*
X105410000Y-92302500D02*
X104367500Y-93345000D01*
X104943000Y-84499000D02*
X104943000Y-87163000D01*
X106426000Y-91667500D02*
X108103500Y-93345000D01*
X105593000Y-84499000D02*
X105593000Y-87176604D01*
X105593000Y-87176604D02*
X106426000Y-88009604D01*
X106426000Y-88009604D02*
X106426000Y-91667500D01*
X108103500Y-97281500D02*
X108866000Y-98044000D01*
X108103500Y-93345000D02*
X108103500Y-97281500D01*
X111707300Y-85979000D02*
X109873000Y-85979000D01*
X114604800Y-84811400D02*
X112874900Y-84811400D01*
X112826800Y-84859500D02*
X111707300Y-85979000D01*
X112874900Y-84811400D02*
X112826800Y-84859500D01*
X109493000Y-85599000D02*
X109493000Y-84499000D01*
X109873000Y-85979000D02*
X109493000Y-85599000D01*
X112826800Y-86795600D02*
X112826800Y-84859500D01*
D37*
X76731500Y-68808600D02*
X80265739Y-68808600D01*
X80265739Y-68808600D02*
X80772000Y-68302339D01*
X80772000Y-68302339D02*
X85404161Y-68302339D01*
X85404161Y-68302339D02*
X85507500Y-68199000D01*
X72425000Y-71593000D02*
X72425000Y-75909000D01*
X74906500Y-68808600D02*
X74906500Y-69111500D01*
X74906500Y-69111500D02*
X72425000Y-71593000D01*
D39*
X74956500Y-66929000D02*
X74956500Y-68758600D01*
D37*
X72425000Y-75909000D02*
X72205000Y-76129000D01*
D39*
X74956500Y-68758600D02*
X74906500Y-68808600D01*
D37*
X86741000Y-74771000D02*
X87503000Y-74009000D01*
X87503000Y-74009000D02*
X91882490Y-74009000D01*
X83843500Y-74771000D02*
X86741000Y-74771000D01*
X91882490Y-74009000D02*
X92111500Y-74238010D01*
X79154100Y-74769900D02*
X77795000Y-76129000D01*
X79833300Y-74771000D02*
X79832200Y-74769900D01*
X79832200Y-74769900D02*
X79154100Y-74769900D01*
X82018500Y-74771000D02*
X79833300Y-74771000D01*
X77795000Y-76129000D02*
X74825000Y-76129000D01*
D42*
X107668700Y-82804000D02*
X114755300Y-75717400D01*
D38*
X104293000Y-84499000D02*
X104293000Y-87069500D01*
X101693000Y-83405000D02*
X101693000Y-84499000D01*
X100457000Y-83058000D02*
X101346000Y-83058000D01*
X104013000Y-82550000D02*
X104293000Y-82830000D01*
X107569000Y-82804000D02*
X107569000Y-84473000D01*
X104293000Y-87069500D02*
X103097500Y-88265000D01*
X98993400Y-84521600D02*
X100457000Y-83058000D01*
X104293000Y-82830000D02*
X104293000Y-84499000D01*
D40*
X114757200Y-75715500D02*
X114755300Y-75717400D01*
D38*
X98779500Y-84521600D02*
X98993400Y-84521600D01*
X107569000Y-84473000D02*
X107543000Y-84499000D01*
X101346000Y-83058000D02*
X101693000Y-83405000D01*
X107543000Y-88417900D02*
X107543000Y-84499000D01*
D40*
X114757200Y-73684300D02*
X114757200Y-75715500D01*
D42*
X107569000Y-82804000D02*
X107668700Y-82804000D01*
D38*
X107543600Y-88418500D02*
X107543000Y-88417900D01*
D37*
X81434300Y-95869687D02*
X79147500Y-95869687D01*
X79044800Y-95766987D02*
X74961977Y-95766987D01*
X79147500Y-95869687D02*
X79044800Y-95766987D01*
X74961977Y-95766987D02*
X74825000Y-95630010D01*
X77444600Y-90854700D02*
X77444600Y-89941400D01*
X74142600Y-89560400D02*
X72205000Y-91498000D01*
X77444600Y-89941400D02*
X77444600Y-89560400D01*
X78081500Y-91491600D02*
X78131500Y-91541600D01*
X78081500Y-89560400D02*
X78081500Y-91491600D01*
X72205000Y-91498000D02*
X72205000Y-95630010D01*
X76479400Y-89560400D02*
X74142600Y-89560400D01*
X77444600Y-89560400D02*
X76479400Y-89560400D01*
X77063600Y-89560400D02*
X76479400Y-89560400D01*
X78081500Y-89560400D02*
X77444600Y-89560400D01*
X77444600Y-89941400D02*
X77063600Y-89560400D01*
X78131500Y-91541600D02*
X77444600Y-90854700D01*
X84201000Y-89630000D02*
X89158500Y-89630000D01*
X79906500Y-89560400D02*
X84131400Y-89560400D01*
X89158500Y-89630000D02*
X89190500Y-89662000D01*
X84131400Y-89560400D02*
X84201000Y-89630000D01*
X87326279Y-95250000D02*
X87172800Y-95096521D01*
X91730500Y-95250000D02*
X87326279Y-95250000D01*
X87172800Y-95096521D02*
X84032466Y-95096521D01*
X84032466Y-95096521D02*
X83259300Y-95869687D01*
X77366500Y-43342908D02*
X74980000Y-43342908D01*
D38*
X108193000Y-77299000D02*
X108193000Y-76189000D01*
X102492100Y-62525200D02*
X102492100Y-64692600D01*
X102414700Y-65838700D02*
X102414700Y-64770000D01*
X102492100Y-64692600D02*
X102414700Y-64770000D01*
X108193000Y-76189000D02*
X106426000Y-74422000D01*
X106426000Y-69850000D02*
X102414700Y-65838700D01*
X106426000Y-74422000D02*
X106426000Y-69850000D01*
X104754900Y-62738000D02*
X104542100Y-62525200D01*
X106529500Y-62738000D02*
X104754900Y-62738000D01*
X86360000Y-53316500D02*
X86383500Y-53340000D01*
X86360000Y-51816000D02*
X86360000Y-53316500D01*
X86143500Y-42204908D02*
X84033092Y-42204908D01*
D42*
X86383500Y-53340000D02*
X87757000Y-53340000D01*
X87757000Y-53340000D02*
X89059000Y-52038000D01*
D38*
X84033092Y-42204908D02*
X83211500Y-43026500D01*
X106243000Y-76017000D02*
X106243000Y-77299000D01*
X104102044Y-59096200D02*
X106057100Y-59096200D01*
X106057100Y-59096200D02*
X106057100Y-60693900D01*
X106057100Y-60693900D02*
X106045000Y-60706000D01*
X106045000Y-75438000D02*
X106045000Y-75819000D01*
X106045000Y-75819000D02*
X106243000Y-76017000D01*
X88257000Y-58412000D02*
X87290000Y-58412000D01*
X88900000Y-59055000D02*
X88257000Y-58412000D01*
X90704500Y-44804500D02*
X89054908Y-43154908D01*
X90009000Y-49763000D02*
X90009000Y-49310000D01*
X90009000Y-49310000D02*
X90704500Y-48614500D01*
X90704500Y-48614500D02*
X90704500Y-44804500D01*
X89054908Y-43154908D02*
X88418500Y-43154908D01*
D43*
X67051000Y-47740000D02*
X67830000Y-47740000D01*
X72837000Y-54996500D02*
X72837000Y-50422200D01*
X67938501Y-46715000D02*
X69129800Y-46715000D01*
X72837000Y-50422200D02*
X72548400Y-50133600D01*
X81814999Y-57387000D02*
X81839999Y-57412000D01*
X79801800Y-57387000D02*
X81814999Y-57387000D01*
X68072000Y-46936000D02*
X67876000Y-46740000D01*
X67830000Y-47740000D02*
X68072000Y-47498000D01*
X69129800Y-46715000D02*
X72548400Y-50133600D01*
X67876000Y-46740000D02*
X67051000Y-46740000D01*
X67913501Y-46740000D02*
X67938501Y-46715000D01*
X67051000Y-46740000D02*
X67913501Y-46740000D01*
X72548400Y-50133600D02*
X79801800Y-57387000D01*
X68072000Y-47498000D02*
X68072000Y-46936000D01*
X81839999Y-57412000D02*
X82890000Y-57412000D01*
X74737000Y-53533000D02*
X74803000Y-53467000D01*
X74737000Y-54996500D02*
X74737000Y-53533000D01*
X67051000Y-46240000D02*
X67913501Y-46240000D01*
X81814999Y-56937000D02*
X81839999Y-56912000D01*
X74676000Y-50419000D02*
X73470200Y-50419000D01*
X69316200Y-46265000D02*
X72993600Y-49942400D01*
X72993600Y-49942400D02*
X79988200Y-56937000D01*
X66040000Y-47054000D02*
X66226000Y-47240000D01*
X66226000Y-46240000D02*
X66040000Y-46426000D01*
X73470200Y-50419000D02*
X72993600Y-49942400D01*
X67913501Y-46240000D02*
X67938501Y-46265000D01*
X81839999Y-56912000D02*
X82890000Y-56912000D01*
X67938501Y-46265000D02*
X69316200Y-46265000D01*
X67051000Y-46240000D02*
X66226000Y-46240000D01*
X66226000Y-47240000D02*
X67051000Y-47240000D01*
X79988200Y-56937000D02*
X81814999Y-56937000D01*
X66040000Y-46426000D02*
X66040000Y-47054000D01*
X74737000Y-59474500D02*
X73787000Y-60424500D01*
X67913501Y-61599000D02*
X67938501Y-61574000D01*
X67876000Y-61599000D02*
X67051000Y-61599000D01*
X68072000Y-61795000D02*
X67876000Y-61599000D01*
X67051000Y-61599000D02*
X67913501Y-61599000D01*
X78837200Y-58387000D02*
X81814999Y-58387000D01*
X67830000Y-62599000D02*
X68072000Y-62357000D01*
X67051000Y-62599000D02*
X67830000Y-62599000D01*
X70760000Y-61574000D02*
X75650200Y-61574000D01*
X74737000Y-57271500D02*
X74737000Y-59474500D01*
X70972000Y-61574000D02*
X70760000Y-61574000D01*
X71755000Y-62357000D02*
X70972000Y-61574000D01*
X81839999Y-58412000D02*
X82890000Y-58412000D01*
X75650200Y-61574000D02*
X78837200Y-58387000D01*
X67938501Y-61574000D02*
X70760000Y-61574000D01*
X68072000Y-62357000D02*
X68072000Y-61795000D01*
X81814999Y-58387000D02*
X81839999Y-58412000D01*
X72226000Y-61124000D02*
X75463800Y-61124000D01*
X66040000Y-61285000D02*
X66040000Y-61913000D01*
X67938501Y-61124000D02*
X71919000Y-61124000D01*
X72837000Y-57271500D02*
X72898000Y-57332500D01*
X72898000Y-60325000D02*
X72099000Y-61124000D01*
X67913501Y-61099000D02*
X67938501Y-61124000D01*
X66040000Y-61913000D02*
X66226000Y-62099000D01*
X81814999Y-57937000D02*
X81839999Y-57912000D01*
X66226000Y-62099000D02*
X67051000Y-62099000D01*
X67051000Y-61099000D02*
X66226000Y-61099000D01*
X75463800Y-61124000D02*
X78650800Y-57937000D01*
X67051000Y-61099000D02*
X67913501Y-61099000D01*
X71919000Y-61124000D02*
X72226000Y-61124000D01*
X72099000Y-61124000D02*
X71919000Y-61124000D01*
X72898000Y-57332500D02*
X72898000Y-60325000D01*
X78650800Y-57937000D02*
X81814999Y-57937000D01*
X66226000Y-61099000D02*
X66040000Y-61285000D01*
X81839999Y-57912000D02*
X82890000Y-57912000D01*
X82677000Y-76962000D02*
X82042000Y-76962000D01*
X102243000Y-76549000D02*
X102243000Y-76143800D01*
X98585800Y-75340000D02*
X96299800Y-77626000D01*
X81378000Y-77626000D02*
X77191603Y-77626000D01*
X102343000Y-76649000D02*
X102243000Y-76549000D01*
X77191603Y-77626000D02*
X76188603Y-78629000D01*
X102243000Y-76143800D02*
X101439200Y-75340000D01*
X82140000Y-77626000D02*
X81378000Y-77626000D01*
X101439200Y-75340000D02*
X98585800Y-75340000D01*
X86299000Y-80269500D02*
X86238500Y-80269500D01*
X82042000Y-76962000D02*
X81378000Y-77626000D01*
X76188603Y-78629000D02*
X74825000Y-78629000D01*
X86238500Y-80269500D02*
X84963000Y-78994000D01*
X96299800Y-77626000D02*
X82140000Y-77626000D01*
X102343000Y-77299000D02*
X102343000Y-76649000D01*
X85823000Y-78076000D02*
X77378000Y-78076000D01*
X88199000Y-78870000D02*
X87405000Y-78076000D01*
X101693000Y-76649000D02*
X101793000Y-76549000D01*
X77378000Y-78076000D02*
X74825000Y-80629000D01*
X96486200Y-78076000D02*
X87405000Y-78076000D01*
X88199000Y-80269500D02*
X88199000Y-78870000D01*
X101693000Y-77299000D02*
X101693000Y-76649000D01*
X101252800Y-75790000D02*
X98772200Y-75790000D01*
X98772200Y-75790000D02*
X96486200Y-78076000D01*
X87405000Y-78076000D02*
X85823000Y-78076000D01*
X101793000Y-76549000D02*
X101793000Y-76330200D01*
X101793000Y-76330200D02*
X101252800Y-75790000D01*
X76991000Y-83468000D02*
X83786200Y-83468000D01*
X83786200Y-83468000D02*
X85058600Y-84740400D01*
X85911630Y-84740400D02*
X85944733Y-84773503D01*
X101760800Y-86516000D02*
X102443000Y-85833800D01*
X102443000Y-85833800D02*
X102443000Y-85249000D01*
X85943031Y-84709000D02*
X85911630Y-84740401D01*
X73630191Y-81312991D02*
X74232200Y-81915000D01*
X91088000Y-86516000D02*
X101760800Y-86516000D01*
X85944733Y-85626533D02*
X85944734Y-85626535D01*
X85485115Y-84740399D02*
X85485116Y-84740401D01*
X88199000Y-82544500D02*
X88199000Y-83886000D01*
X85911630Y-84740401D02*
X85911630Y-84740400D01*
X86834200Y-86516000D02*
X91088000Y-86516000D01*
X73630191Y-80054191D02*
X73630191Y-81312991D01*
X74232200Y-81915000D02*
X75438000Y-81915000D01*
X102443000Y-85249000D02*
X102343000Y-85149000D01*
X75438000Y-81915000D02*
X76991000Y-83468000D01*
X85944734Y-85626535D02*
X86834200Y-86516000D01*
X72205000Y-78629000D02*
X73630191Y-80054191D01*
X88199000Y-83886000D02*
X87376000Y-84709000D01*
X85944734Y-85200018D02*
X85944733Y-85200019D01*
X102343000Y-85149000D02*
X102343000Y-84499000D01*
X87376000Y-84709000D02*
X85943031Y-84709000D01*
X85944710Y-85626556D02*
G75*
G02*
X85944734Y-85200020I213290J213256D01*
G01*
X85944773Y-85200057D02*
G75*
G03*
X85944733Y-84773503I-213273J213257D01*
G01*
X85485157Y-84740441D02*
G75*
G02*
X85058601Y-84740399I-213257J213341D01*
G01*
X85911630Y-84740401D02*
G75*
G03*
X85485116Y-84740401I-213257J-213253D01*
G01*
X102993000Y-84499000D02*
X102993000Y-85149000D01*
X82677000Y-84709000D02*
X81973000Y-84709000D01*
X101947200Y-86966000D02*
X86647800Y-86966000D01*
X75747800Y-83918000D02*
X75337800Y-84328000D01*
X102893000Y-86020200D02*
X101947200Y-86966000D01*
X74295000Y-84328000D02*
X73533000Y-83566000D01*
X73533000Y-81957000D02*
X72205000Y-80629000D01*
X86238500Y-82544500D02*
X85344000Y-83439000D01*
X83599800Y-83918000D02*
X81182000Y-83918000D01*
X102993000Y-85149000D02*
X102893000Y-85249000D01*
X83851400Y-84169600D02*
X83599800Y-83918000D01*
X86299000Y-82544500D02*
X86238500Y-82544500D01*
X102893000Y-85249000D02*
X102893000Y-86020200D01*
X73533000Y-83566000D02*
X73533000Y-81957000D01*
X81973000Y-84709000D02*
X81182000Y-83918000D01*
X81182000Y-83918000D02*
X75747800Y-83918000D01*
X75337800Y-84328000D02*
X74295000Y-84328000D01*
X86647800Y-86966000D02*
X83851400Y-84169600D01*
X108843000Y-84499000D02*
X108843000Y-85811501D01*
X88707000Y-104297500D02*
X88392000Y-104612500D01*
X73325019Y-102789019D02*
X73325019Y-101250029D01*
X76337058Y-103759000D02*
X74295000Y-103759000D01*
X114017000Y-99915200D02*
X108170200Y-105762000D01*
X108743000Y-85911501D02*
X108743000Y-86961800D01*
X108843000Y-85811501D02*
X108743000Y-85911501D01*
X85504800Y-105951800D02*
X85504800Y-105762000D01*
X114017000Y-93251800D02*
X114017000Y-99915200D01*
X85504800Y-105762000D02*
X83091800Y-103349000D01*
X86106000Y-106553000D02*
X85504800Y-105951800D01*
X108170200Y-105762000D02*
X93951000Y-105762000D01*
X73325019Y-101250029D02*
X72205000Y-100130010D01*
X93951000Y-105762000D02*
X92739000Y-105762000D01*
X108743000Y-86961800D02*
X111604000Y-89822800D01*
X83091800Y-103349000D02*
X76747058Y-103349000D01*
X92739000Y-105762000D02*
X85504800Y-105762000D01*
X76747058Y-103349000D02*
X76337058Y-103759000D01*
X111604000Y-89822800D02*
X111604000Y-90838800D01*
X74295000Y-103759000D02*
X73325019Y-102789019D01*
X111604000Y-90838800D02*
X114017000Y-93251800D01*
X88707000Y-102991500D02*
X88707000Y-104297500D01*
X108193000Y-84499000D02*
X108193000Y-85811501D01*
X73660000Y-100711000D02*
X73660000Y-99585010D01*
X89504446Y-105312000D02*
X89476000Y-105312000D01*
X86807000Y-102991500D02*
X86714500Y-102899000D01*
X90465223Y-105001223D02*
X90465223Y-105001222D01*
X83029000Y-102899000D02*
X76933458Y-102899000D01*
X108293000Y-85911501D02*
X108293000Y-87148200D01*
X107983800Y-105312000D02*
X90776000Y-105312000D01*
X113567000Y-93438200D02*
X113567000Y-99728800D01*
X75380458Y-101346000D02*
X74295000Y-101346000D01*
X89476000Y-105312000D02*
X85691200Y-105312000D01*
X90154446Y-104690445D02*
X90126000Y-104690445D01*
X83278200Y-102899000D02*
X83029000Y-102899000D01*
X74295000Y-101346000D02*
X73660000Y-100711000D01*
X111154000Y-91025200D02*
X113567000Y-93438200D01*
X76933458Y-102899000D02*
X75380458Y-101346000D01*
X113567000Y-99728800D02*
X107983800Y-105312000D01*
X111154000Y-90009200D02*
X111154000Y-91025200D01*
X89815223Y-105001222D02*
X89815223Y-105001223D01*
X86714500Y-102899000D02*
X83029000Y-102899000D01*
X108193000Y-85811501D02*
X108293000Y-85911501D01*
X73660000Y-99585010D02*
X72205000Y-98130010D01*
X85691200Y-105312000D02*
X83278200Y-102899000D01*
X108293000Y-87148200D02*
X111154000Y-90009200D01*
X90154446Y-104690377D02*
G75*
G02*
X90465223Y-105001222I-46J-310823D01*
G01*
X89815245Y-105001222D02*
G75*
G02*
X90126000Y-104690445I310755J22D01*
G01*
X89504446Y-105312023D02*
G75*
G03*
X89815223Y-105001223I-46J310823D01*
G01*
X90465200Y-105001223D02*
G75*
G03*
X90776000Y-105312000I310800J23D01*
G01*
X106893000Y-84499000D02*
X106893000Y-83186499D01*
X106793000Y-83086499D02*
X106793000Y-82471801D01*
X86807000Y-100716500D02*
X85883500Y-99793000D01*
X75162010Y-99793000D02*
X74825000Y-100130010D01*
X106793000Y-82471801D02*
X105781232Y-81460033D01*
X85471000Y-98298000D02*
X85979000Y-97790000D01*
X84201000Y-99568000D02*
X85471000Y-98298000D01*
X85883500Y-99793000D02*
X83976000Y-99793000D01*
X83976000Y-99793000D02*
X84201000Y-99568000D01*
X83630630Y-99793000D02*
X83214000Y-99793000D01*
X85979000Y-97790000D02*
X86233000Y-97790000D01*
X106893000Y-83186499D02*
X106793000Y-83086499D01*
X83630630Y-99793000D02*
X83976000Y-99793000D01*
X83214000Y-99793000D02*
X75162010Y-99793000D01*
X105781232Y-81460033D02*
X105781232Y-81035768D01*
X106343000Y-82658199D02*
X105463033Y-81778232D01*
X81534000Y-99343000D02*
X82140000Y-99343000D01*
X76037990Y-99343000D02*
X74825000Y-98130010D01*
X88707000Y-99756000D02*
X88265000Y-99314000D01*
X106343000Y-83086499D02*
X106343000Y-82658199D01*
X82140000Y-99343000D02*
X82423000Y-99060000D01*
X106243000Y-84499000D02*
X106243000Y-83186499D01*
X105463033Y-81778232D02*
X105038768Y-81778232D01*
X106243000Y-83186499D02*
X106343000Y-83086499D01*
X88707000Y-100716500D02*
X88707000Y-99756000D01*
X81534000Y-99343000D02*
X76037990Y-99343000D01*
X88365001Y-57887000D02*
X89699800Y-57887000D01*
X98105637Y-66292837D02*
X103093000Y-71280200D01*
X97186399Y-65833219D02*
X97186400Y-65833219D01*
X89699800Y-57887000D02*
X97186400Y-65373600D01*
X97644747Y-66294108D02*
X97644747Y-66294109D01*
X87290000Y-57912000D02*
X88340001Y-57912000D01*
X98105638Y-66292837D02*
X98105637Y-66292837D01*
X103093000Y-75886499D02*
X102993000Y-75986499D01*
X88340001Y-57912000D02*
X88365001Y-57887000D01*
X97185128Y-66294110D02*
X97185128Y-66294109D01*
X97186400Y-65833219D02*
X97185128Y-65834490D01*
X103093000Y-71280200D02*
X103093000Y-75886499D01*
X97644747Y-66294109D02*
X97646018Y-66292837D01*
X102993000Y-75986499D02*
X102993000Y-77299000D01*
X97644709Y-66294070D02*
G75*
G02*
X97185129Y-66294108I-229809J229770D01*
G01*
X97186390Y-65833210D02*
G75*
G03*
X97186400Y-65373600I-229790J229810D01*
G01*
X97185128Y-66294110D02*
G75*
G02*
X97185128Y-65834490I229772J229810D01*
G01*
X98105638Y-66292837D02*
G75*
G03*
X97646018Y-66292837I-229810J-229811D01*
G01*
X103543000Y-75886499D02*
X103643000Y-75986499D01*
X88365001Y-57437000D02*
X89886200Y-57437000D01*
X88340001Y-57412000D02*
X88365001Y-57437000D01*
X103543000Y-71093800D02*
X103543000Y-75886499D01*
X87290000Y-57412000D02*
X88340001Y-57412000D01*
X89886200Y-57437000D02*
X103543000Y-71093800D01*
X103643000Y-75986499D02*
X103643000Y-77299000D01*
D38*
X88447500Y-44133908D02*
X88418500Y-44104908D01*
X88447500Y-46202908D02*
X88447500Y-44133908D01*
X97663000Y-81153000D02*
X97004500Y-81811500D01*
X103643000Y-84499000D02*
X103643000Y-83577000D01*
X101219000Y-81153000D02*
X97663000Y-81153000D01*
X97004500Y-81811500D02*
X97004500Y-82489600D01*
X103643000Y-83577000D02*
X101219000Y-81153000D01*
X67691000Y-59436000D02*
X67691000Y-59563000D01*
X67691000Y-59563000D02*
X67655000Y-59599000D01*
D42*
X67945000Y-59436000D02*
X69215000Y-59436000D01*
X67691000Y-64262000D02*
X67945000Y-64262000D01*
X83312000Y-53467000D02*
X84431500Y-53467000D01*
D38*
X67655000Y-64099000D02*
X67691000Y-64135000D01*
D42*
X67945000Y-64262000D02*
X68961000Y-64262000D01*
D38*
X67691000Y-64262000D02*
X67691000Y-64389000D01*
X67691000Y-64389000D02*
X67681000Y-64399000D01*
X67691000Y-64135000D02*
X67691000Y-64262000D01*
X67051000Y-64099000D02*
X67655000Y-64099000D01*
D42*
X67691000Y-59436000D02*
X67945000Y-59436000D01*
D38*
X67691000Y-59309000D02*
X67691000Y-59436000D01*
X67681000Y-59299000D02*
X67691000Y-59309000D01*
X67681000Y-64399000D02*
X67051000Y-64399000D01*
D42*
X69215000Y-59436000D02*
X69723000Y-58928000D01*
D38*
X67655000Y-59599000D02*
X67051000Y-59599000D01*
D42*
X84431500Y-53467000D02*
X84558500Y-53340000D01*
D38*
X67051000Y-59299000D02*
X67681000Y-59299000D01*
X70358000Y-60325000D02*
X71120000Y-59563000D01*
X70084000Y-60599000D02*
X70358000Y-60325000D01*
X71120000Y-59563000D02*
X71374000Y-59309000D01*
X73533000Y-62738000D02*
X74906500Y-62738000D01*
X67051000Y-60599000D02*
X70084000Y-60599000D01*
X71374000Y-59309000D02*
X72009000Y-59309000D01*
X68354000Y-63599000D02*
X68580000Y-63373000D01*
X70104000Y-63373000D02*
X71501000Y-64770000D01*
X71501000Y-64770000D02*
X74906500Y-64770000D01*
X68580000Y-63373000D02*
X70104000Y-63373000D01*
X67051000Y-63599000D02*
X68354000Y-63599000D01*
X66476000Y-56739000D02*
X62546000Y-56739000D01*
X70334500Y-68834000D02*
X67945000Y-68834000D01*
X67945000Y-68834000D02*
X66476000Y-67365000D01*
X62546000Y-66959000D02*
X66476000Y-66959000D01*
X62546000Y-56739000D02*
X62546000Y-66959000D01*
X66476000Y-67365000D02*
X66476000Y-66959000D01*
X67051000Y-44740000D02*
X68925000Y-44740000D01*
X67051000Y-49540000D02*
X67681000Y-49540000D01*
X67691000Y-44577000D02*
X68834000Y-44577000D01*
X70485000Y-43180000D02*
X70358000Y-43307000D01*
D42*
X70739000Y-43942000D02*
X71374000Y-43307000D01*
D38*
X68925000Y-44740000D02*
X70358000Y-43307000D01*
X67655000Y-49240000D02*
X67051000Y-49240000D01*
X73119092Y-43307000D02*
X73155000Y-43342908D01*
X70231000Y-43053000D02*
X70358000Y-43053000D01*
X67051000Y-44440000D02*
X68844000Y-44440000D01*
D42*
X67691000Y-49403000D02*
X68453000Y-49403000D01*
D38*
X70358000Y-43307000D02*
X71755000Y-43307000D01*
X67691000Y-49403000D02*
X67691000Y-49276000D01*
D42*
X68453000Y-49403000D02*
X69215000Y-49403000D01*
D38*
X67681000Y-49540000D02*
X67691000Y-49530000D01*
X71755000Y-43307000D02*
X73119092Y-43307000D01*
X72992092Y-43180000D02*
X70485000Y-43180000D01*
X68834000Y-44577000D02*
X70358000Y-43053000D01*
X67691000Y-49276000D02*
X67655000Y-49240000D01*
D37*
X73155000Y-43342908D02*
X73116092Y-43342908D01*
D38*
X67528000Y-44740000D02*
X67691000Y-44577000D01*
X68844000Y-44440000D02*
X70231000Y-43053000D01*
X67691000Y-49530000D02*
X67691000Y-49403000D01*
X72865092Y-43053000D02*
X73155000Y-43342908D01*
X67051000Y-44740000D02*
X67528000Y-44740000D01*
X70358000Y-43053000D02*
X72865092Y-43053000D01*
X73155000Y-43342908D02*
X72992092Y-43180000D01*
X75287500Y-45720000D02*
X75541500Y-45974000D01*
X72136000Y-45720000D02*
X75287500Y-45720000D01*
X67051000Y-45740000D02*
X72116000Y-45740000D01*
X72116000Y-45740000D02*
X72136000Y-45720000D01*
X69723000Y-48514000D02*
X70612000Y-49403000D01*
X74422000Y-48133000D02*
X75541500Y-48133000D01*
X68481000Y-48740000D02*
X68707000Y-48514000D01*
X67051000Y-48740000D02*
X68481000Y-48740000D01*
X68707000Y-48514000D02*
X69723000Y-48514000D01*
X70612000Y-49403000D02*
X70612000Y-49911000D01*
X70080500Y-41275000D02*
X68580000Y-41275000D01*
X66476000Y-52100000D02*
X62546000Y-52100000D01*
X62546000Y-52100000D02*
X62546000Y-41880000D01*
X66476000Y-41880000D02*
X62546000Y-41880000D01*
X68580000Y-41275000D02*
X67975000Y-41880000D01*
X67975000Y-41880000D02*
X66476000Y-41880000D01*
M02*
