M48
; DRILL file {KiCad (6.0.10)} date Tue Jan 17 15:40:36 2023
; FORMAT={-:-/ absolute / metric / decimal}
; #@! TF.CreationDate,2023-01-17T15:40:36+01:00
; #@! TF.GenerationSoftware,Kicad,Pcbnew,(6.0.10)
; #@! TF.FileFunction,Plated,1,4,PTH
FMAT,2
METRIC
; #@! TA.AperFunction,Plated,PTH,ViaDrill
T1C0.400
; #@! TA.AperFunction,Plated,PTH,ComponentDrill
T2C0.630
; #@! TA.AperFunction,Plated,PTH,ComponentDrill
T3C0.800
; #@! TA.AperFunction,Plated,PTH,ComponentDrill
T4C0.920
; #@! TA.AperFunction,Plated,PTH,ComponentDrill
T5C1.000
; #@! TA.AperFunction,Plated,PTH,ComponentDrill
T6C2.300
%
G90
G05
T1
X68.961Y-42.926
X68.961Y-64.262
X69.088Y-57.531
X69.088Y-66.294
X69.215Y-49.403
X69.215Y-51.689
X69.723Y-58.928
X70.612Y-49.911
X70.739Y-43.942
X71.755Y-62.357
X72.009Y-59.309
X72.898Y-67.437
X73.406Y-41.275
X73.533Y-62.738
X73.66Y-53.467
X73.787Y-58.674
X73.787Y-60.424
X74.422Y-48.133
X74.676Y-50.419
X74.803Y-53.467
X77.978Y-66.548
X78.359Y-62.738
X78.359Y-64.77
X78.652Y-45.974
X78.652Y-48.133
X78.994Y-92.837
X79.883Y-71.628
X81.153Y-91.567
X81.28Y-59.436
X82.423Y-99.06
X82.677Y-76.962
X82.677Y-84.709
X83.212Y-43.026
X83.312Y-53.467
X84.074Y-61.214
X84.608Y-44.042
X84.736Y-42.929
X84.963Y-78.994
X85.344Y-83.439
X86.106Y-106.553
X86.233Y-97.79
X86.36Y-51.816
X86.868Y-83.947
X86.995Y-78.994
X87.122Y-104.521
X87.376Y-60.071
X88.037Y-48.233
X88.265Y-99.314
X88.392Y-104.612
X88.646Y-56.134
X88.773Y-61.214
X88.9Y-59.055
X90.043Y-68.199
X90.17Y-101.854
X90.197Y-42.264
X92.202Y-69.469
X93.853Y-89.662
X95.631Y-84.455
X96.266Y-95.25
X99.822Y-88.265
X100.457Y-83.058
X100.965Y-59.055
X101.346Y-93.345
X104.013Y-82.55
X104.902Y-70.231
X104.902Y-74.676
X105.039Y-81.778
X105.781Y-81.036
X106.045Y-60.706
X106.045Y-75.438
X107.569Y-82.804
X107.569Y-91.44
X108.712Y-75.311
X109.474Y-59.055
X109.474Y-70.358
X110.363Y-75.692
X111.252Y-93.345
X112.649Y-70.358
X112.776Y-81.788
X112.776Y-89.916
X114.681Y-70.612
X114.681Y-81.788
T2
X103.986Y-98.044
X108.866Y-98.044
T3
X80.772Y-66.302
X80.772Y-68.302
X81.179Y-48.486
X81.179Y-50.486
X84.201Y-87.63
X84.201Y-89.63
X87.173Y-93.097
X87.173Y-95.097
X87.503Y-72.009
X87.503Y-74.009
T4
X72.205Y-76.129
X72.205Y-78.629
X72.205Y-80.629
X72.205Y-83.129
X72.205Y-95.63
X72.205Y-98.13
X72.205Y-100.13
X72.205Y-102.63
X74.825Y-76.129
X74.825Y-78.629
X74.825Y-80.629
X74.825Y-83.129
X74.825Y-95.63
X74.825Y-98.13
X74.825Y-100.13
X74.825Y-102.63
T5
X95.011Y-54.61
X97.551Y-54.61
X100.091Y-54.61
T6
X69.495Y-73.059
X69.495Y-86.199
X69.495Y-92.56
X69.495Y-105.7
X75.175Y-73.059
X75.175Y-86.199
X75.175Y-92.56
X75.175Y-105.7
T0
M30
