%TF.GenerationSoftware,KiCad,Pcbnew,(6.0.10)*%
%TF.CreationDate,2023-01-17T15:39:30+01:00*%
%TF.ProjectId,kvm,6b766d2e-6b69-4636-9164-5f7063625858,v01*%
%TF.SameCoordinates,Original*%
%TF.FileFunction,Soldermask,Top*%
%TF.FilePolarity,Negative*%
%FSLAX46Y46*%
G04 Gerber Fmt 4.6, Leading zero omitted, Abs format (unit mm)*
G04 Created by KiCad (PCBNEW (6.0.10)) date 2023-01-17 15:39:30*
%MOMM*%
%LPD*%
G01*
G04 APERTURE LIST*
G04 Aperture macros list*
%AMRoundRect*
0 Rectangle with rounded corners*
0 $1 Rounding radius*
0 $2 $3 $4 $5 $6 $7 $8 $9 X,Y pos of 4 corners*
0 Add a 4 corners polygon primitive as box body*
4,1,4,$2,$3,$4,$5,$6,$7,$8,$9,$2,$3,0*
0 Add four circle primitives for the rounded corners*
1,1,$1+$1,$2,$3*
1,1,$1+$1,$4,$5*
1,1,$1+$1,$6,$7*
1,1,$1+$1,$8,$9*
0 Add four rect primitives between the rounded corners*
20,1,$1+$1,$2,$3,$4,$5,0*
20,1,$1+$1,$4,$5,$6,$7,0*
20,1,$1+$1,$6,$7,$8,$9,0*
20,1,$1+$1,$8,$9,$2,$3,0*%
G04 Aperture macros list end*
%ADD10RoundRect,0.237500X-0.250000X-0.237500X0.250000X-0.237500X0.250000X0.237500X-0.250000X0.237500X0*%
%ADD11RoundRect,0.237500X0.300000X0.237500X-0.300000X0.237500X-0.300000X-0.237500X0.300000X-0.237500X0*%
%ADD12RoundRect,0.250001X0.462499X0.624999X-0.462499X0.624999X-0.462499X-0.624999X0.462499X-0.624999X0*%
%ADD13R,1.500000X1.500000*%
%ADD14C,1.500000*%
%ADD15C,3.000000*%
%ADD16RoundRect,0.237500X-0.237500X0.300000X-0.237500X-0.300000X0.237500X-0.300000X0.237500X0.300000X0*%
%ADD17RoundRect,0.237500X0.250000X0.237500X-0.250000X0.237500X-0.250000X-0.237500X0.250000X-0.237500X0*%
%ADD18R,1.100000X1.100000*%
%ADD19RoundRect,0.237500X0.237500X-0.300000X0.237500X0.300000X-0.237500X0.300000X-0.237500X-0.300000X0*%
%ADD20RoundRect,0.237500X-0.300000X-0.237500X0.300000X-0.237500X0.300000X0.237500X-0.300000X0.237500X0*%
%ADD21RoundRect,0.150000X-0.150000X0.512500X-0.150000X-0.512500X0.150000X-0.512500X0.150000X0.512500X0*%
%ADD22R,1.600000X1.600000*%
%ADD23C,1.600000*%
%ADD24RoundRect,0.250000X0.475000X-0.337500X0.475000X0.337500X-0.475000X0.337500X-0.475000X-0.337500X0*%
%ADD25C,0.001000*%
%ADD26R,1.150000X0.300000*%
%ADD27R,2.000000X2.180000*%
%ADD28RoundRect,0.237500X0.237500X-0.250000X0.237500X0.250000X-0.237500X0.250000X-0.237500X-0.250000X0*%
%ADD29R,1.700000X1.700000*%
%ADD30O,1.700000X1.700000*%
%ADD31R,0.450000X1.750000*%
%ADD32RoundRect,0.250000X-0.325000X-0.450000X0.325000X-0.450000X0.325000X0.450000X-0.325000X0.450000X0*%
%ADD33R,1.400000X0.300000*%
%ADD34RoundRect,0.150000X-0.512500X-0.150000X0.512500X-0.150000X0.512500X0.150000X-0.512500X0.150000X0*%
%ADD35RoundRect,0.250001X-0.624999X0.462499X-0.624999X-0.462499X0.624999X-0.462499X0.624999X0.462499X0*%
%ADD36C,1.155000*%
G04 APERTURE END LIST*
D10*
X70334500Y-68834000D03*
X72159500Y-68834000D03*
D11*
X103097500Y-88265000D03*
X101372500Y-88265000D03*
D12*
X92165500Y-89662000D03*
X89190500Y-89662000D03*
D13*
X74825000Y-76129000D03*
D14*
X74825000Y-78629000D03*
X74825000Y-80629000D03*
X74825000Y-83129000D03*
X72205000Y-76129000D03*
X72205000Y-78629000D03*
X72205000Y-80629000D03*
X72205000Y-83129000D03*
D15*
X75175000Y-86199000D03*
X69495000Y-73059000D03*
X75175000Y-73059000D03*
X69495000Y-86199000D03*
D16*
X107543600Y-88418500D03*
X107543600Y-90143500D03*
D17*
X83843500Y-74771000D03*
X82018500Y-74771000D03*
X107882100Y-59096200D03*
X106057100Y-59096200D03*
X98829500Y-82489600D03*
X97004500Y-82489600D03*
D18*
X80166500Y-43342908D03*
X77366500Y-43342908D03*
D11*
X109828500Y-93345000D03*
X108103500Y-93345000D03*
D17*
X104102044Y-59096200D03*
X102277044Y-59096200D03*
D10*
X74906500Y-62738000D03*
X76731500Y-62738000D03*
X74906500Y-64770000D03*
X76731500Y-64770000D03*
D19*
X114757200Y-73684300D03*
X114757200Y-71959300D03*
D20*
X102642500Y-93345000D03*
X104367500Y-93345000D03*
D11*
X87251000Y-61214000D03*
X85526000Y-61214000D03*
D17*
X108354500Y-62738000D03*
X106529500Y-62738000D03*
D21*
X90009000Y-49763000D03*
X88109000Y-49763000D03*
X89059000Y-52038000D03*
D22*
X80772000Y-68302339D03*
D23*
X80772000Y-66302339D03*
D21*
X74737000Y-54996500D03*
X73787000Y-54996500D03*
X72837000Y-54996500D03*
X72837000Y-57271500D03*
X73787000Y-57271500D03*
X74737000Y-57271500D03*
X88707000Y-100716500D03*
X87757000Y-100716500D03*
X86807000Y-100716500D03*
X86807000Y-102991500D03*
X87757000Y-102991500D03*
X88707000Y-102991500D03*
D24*
X112572800Y-73631600D03*
X112572800Y-71556600D03*
D25*
X65976000Y-49880000D03*
X65976000Y-44100000D03*
D26*
X67051000Y-43640000D03*
X67051000Y-44440000D03*
X67051000Y-45740000D03*
X67051000Y-46740000D03*
X67051000Y-47240000D03*
X67051000Y-48240000D03*
X67051000Y-49540000D03*
X67051000Y-50340000D03*
X67051000Y-50040000D03*
X67051000Y-49240000D03*
X67051000Y-48740000D03*
X67051000Y-47740000D03*
X67051000Y-46240000D03*
X67051000Y-45240000D03*
X67051000Y-44740000D03*
X67051000Y-43940000D03*
D27*
X62546000Y-41880000D03*
X62546000Y-52100000D03*
X66476000Y-41880000D03*
X66476000Y-52100000D03*
D10*
X75541500Y-45974000D03*
X77366500Y-45974000D03*
D19*
X104952800Y-73379500D03*
X104952800Y-71654500D03*
D17*
X104239700Y-64770000D03*
X102414700Y-64770000D03*
D22*
X87503000Y-74009000D03*
D23*
X87503000Y-72009000D03*
D10*
X84558500Y-53340000D03*
X86383500Y-53340000D03*
D28*
X112826800Y-88620600D03*
X112826800Y-86795600D03*
D11*
X76681500Y-66929000D03*
X74956500Y-66929000D03*
D17*
X76731500Y-68808600D03*
X74906500Y-68808600D03*
D19*
X85370500Y-50239000D03*
X85370500Y-48514000D03*
D16*
X79044800Y-94041987D03*
X79044800Y-95766987D03*
D29*
X95011000Y-54610000D03*
D30*
X97551000Y-54610000D03*
X100091000Y-54610000D03*
D17*
X88447500Y-46202908D03*
X86622500Y-46202908D03*
D22*
X84201000Y-89630000D03*
D23*
X84201000Y-87630000D03*
D10*
X73155000Y-43342908D03*
X74980000Y-43342908D03*
D25*
X65976000Y-64739000D03*
X65976000Y-58959000D03*
D26*
X67051000Y-58499000D03*
X67051000Y-59299000D03*
X67051000Y-60599000D03*
X67051000Y-61599000D03*
X67051000Y-62099000D03*
X67051000Y-63099000D03*
X67051000Y-64399000D03*
X67051000Y-65199000D03*
X67051000Y-64899000D03*
X67051000Y-64099000D03*
X67051000Y-63599000D03*
X67051000Y-62599000D03*
X67051000Y-61099000D03*
X67051000Y-60099000D03*
X67051000Y-59599000D03*
X67051000Y-58799000D03*
D27*
X62546000Y-56739000D03*
X62546000Y-66959000D03*
X66476000Y-56739000D03*
X66476000Y-66959000D03*
D19*
X109474000Y-73379500D03*
X109474000Y-71654500D03*
D31*
X101693000Y-84499000D03*
X102343000Y-84499000D03*
X102993000Y-84499000D03*
X103643000Y-84499000D03*
X104293000Y-84499000D03*
X104943000Y-84499000D03*
X105593000Y-84499000D03*
X106243000Y-84499000D03*
X106893000Y-84499000D03*
X107543000Y-84499000D03*
X108193000Y-84499000D03*
X108843000Y-84499000D03*
X109493000Y-84499000D03*
X110143000Y-84499000D03*
X110143000Y-77299000D03*
X109493000Y-77299000D03*
X108843000Y-77299000D03*
X108193000Y-77299000D03*
X107543000Y-77299000D03*
X106893000Y-77299000D03*
X106243000Y-77299000D03*
X105593000Y-77299000D03*
X104943000Y-77299000D03*
X104293000Y-77299000D03*
X103643000Y-77299000D03*
X102993000Y-77299000D03*
X102343000Y-77299000D03*
X101693000Y-77299000D03*
D22*
X81179500Y-48485988D03*
D23*
X81179500Y-50485988D03*
D32*
X102492100Y-62525200D03*
X104542100Y-62525200D03*
D33*
X87290000Y-58912000D03*
X87290000Y-58412000D03*
X87290000Y-57912000D03*
X87290000Y-57412000D03*
X87290000Y-56912000D03*
X82890000Y-56912000D03*
X82890000Y-57412000D03*
X82890000Y-57912000D03*
X82890000Y-58412000D03*
X82890000Y-58912000D03*
D11*
X98779500Y-84521600D03*
X97054500Y-84521600D03*
D22*
X87172800Y-95096521D03*
D23*
X87172800Y-93096521D03*
D13*
X74825000Y-95630010D03*
D14*
X74825000Y-98130010D03*
X74825000Y-100130010D03*
X74825000Y-102630010D03*
X72205000Y-95630010D03*
X72205000Y-98130010D03*
X72205000Y-100130010D03*
X72205000Y-102630010D03*
D15*
X69495000Y-92560010D03*
X75175000Y-105700010D03*
X75175000Y-92560010D03*
X69495000Y-105700010D03*
D10*
X70080500Y-41275000D03*
X71905500Y-41275000D03*
D17*
X83259300Y-95869687D03*
X81434300Y-95869687D03*
D10*
X75541500Y-48133000D03*
X77366500Y-48133000D03*
D34*
X86143500Y-42204908D03*
X86143500Y-43154908D03*
X86143500Y-44104908D03*
X88418500Y-44104908D03*
X88418500Y-43154908D03*
X88418500Y-42204908D03*
D16*
X79832200Y-73044900D03*
X79832200Y-74769900D03*
D11*
X79856500Y-91541600D03*
X78131500Y-91541600D03*
D17*
X114755300Y-75717400D03*
X112930300Y-75717400D03*
D12*
X88482500Y-68199000D03*
X85507500Y-68199000D03*
D35*
X92202000Y-71283500D03*
X92202000Y-74258500D03*
D12*
X94705500Y-95250000D03*
X91730500Y-95250000D03*
D36*
X103986000Y-98044000D03*
X108866000Y-98044000D03*
D28*
X112826800Y-84859500D03*
X112826800Y-83034500D03*
D19*
X114604800Y-84811400D03*
X114604800Y-83086400D03*
D17*
X79906500Y-89560400D03*
X78081500Y-89560400D03*
D21*
X88199000Y-80269500D03*
X87249000Y-80269500D03*
X86299000Y-80269500D03*
X86299000Y-82544500D03*
X87249000Y-82544500D03*
X88199000Y-82544500D03*
M02*
